<svg width="369" height="330" viewBox="0 0 369 330" fill="none" xmlns="http://www.w3.org/2000/svg">
<rect width="369" height="330" fill="white"/>
<path d="M332.611 14.045V71.9814H249.399L246.4 14.4458L332.611 14.045Z" fill="#E0E0E0"/>
<path d="M246.4 14.4458V71.8597H329.612V14.4458L246.4 14.4458Z" fill="white"/>
<path d="M330.013 72.2533H246.007V14.0522H330.013V72.2533ZM246.794 71.4662H329.219V14.8393H246.794V71.4662Z" fill="#E0E0E0"/>
<path d="M320.603 21.5804H255.417V64.725H320.603V21.5804Z" fill="white"/>
<path d="M320.603 21.5805H320.281H319.358H315.78L302.347 21.6305L255.424 21.7236L255.61 21.5375C255.61 34.7192 255.61 49.3249 255.61 64.6749L255.41 64.4674L320.596 64.5104L320.431 64.6749C320.467 51.5434 320.495 40.7805 320.517 33.2808C320.517 29.5381 320.553 26.6112 320.56 24.6004C320.56 23.6128 320.56 22.8543 320.56 22.3247C320.56 21.8023 320.56 21.5304 320.56 21.5304C320.56 21.5304 320.56 21.7808 320.56 22.2889C320.56 22.797 320.56 23.5627 320.56 24.536C320.56 26.5397 320.56 29.4522 320.603 33.1806C320.603 40.7018 320.653 51.5004 320.689 64.6678V64.8324H320.524L255.338 64.8753H255.131V64.6678C255.131 49.3178 255.131 34.712 255.131 21.5304V21.3443H255.324L302.505 21.4874L315.894 21.5375H319.436H320.338L320.603 21.5805Z" fill="#E0E0E0"/>
<path d="M246.4 14.2883C246.914 14.5358 247.394 14.8459 247.832 15.2114C248.683 15.8269 249.843 16.6999 251.095 17.7018C252.347 18.7037 253.449 19.6483 254.222 20.3639C254.671 20.7164 255.073 21.1253 255.417 21.5804C253.831 20.4654 252.303 19.2712 250.837 18.0024C249.283 16.8568 247.802 15.6164 246.4 14.2883Z" fill="#E0E0E0"/>
<path d="M329.62 14.4457C328.249 15.7895 326.785 17.0354 325.24 18.1741C323.776 19.4166 322.226 20.5548 320.603 21.5804C321.972 20.2347 323.435 18.9888 324.982 17.8521C326.447 16.6096 327.996 15.4714 329.62 14.4457Z" fill="#E0E0E0"/>
<path d="M329.548 71.8669L320.245 64.3458L329.548 71.8669Z" fill="white"/>
<path d="M320.274 64.3458C321.941 65.4297 323.533 66.6252 325.04 67.9239C326.631 69.1261 328.137 70.4364 329.548 71.8454C327.881 70.7615 326.288 69.566 324.782 68.2674C323.191 67.0651 321.685 65.7548 320.274 64.3458Z" fill="#E0E0E0"/>
<path d="M246.4 71.8598C247.756 70.5269 249.205 69.2929 250.737 68.1672C252.182 66.9351 253.715 65.8109 255.324 64.8038C253.969 66.1351 252.52 67.3668 250.988 68.4892C249.542 69.7221 248.009 70.8486 246.4 71.8598Z" fill="#E0E0E0"/>
<path d="M268.649 35.0198V49.4681H309.668V35.0198H268.649Z" fill="#E0E0E0"/>
<path d="M272.22 324.544H346V110.396H272.22V324.544Z" fill="#3A3E47"/>
<path d="M232.618 324.544H313.396V110.396H232.618L232.618 324.544Z" fill="#F5F5F5"/>
<path d="M282.21 274.573H260.627C260.219 274.573 259.827 274.411 259.539 274.122C259.25 273.834 259.088 273.442 259.088 273.034V271.753H283.748V273.034C283.748 273.442 283.586 273.834 283.298 274.122C283.009 274.411 282.618 274.573 282.21 274.573Z" fill="#E0E0E0"/>
<path d="M236.188 271.753C236.188 271.753 236.188 272.011 236.188 272.526C236.188 273.041 236.188 273.821 236.188 274.823C236.188 276.863 236.189 279.833 236.146 283.661C236.146 291.354 236.095 302.417 236.06 315.964V316.129H236.224L308.208 316.172H308.452V315.964C308.452 300.321 308.452 285.4 308.452 271.818V271.632H308.23L256.29 271.674L241.47 271.71H237.541H236.532H236.203H236.561H237.584H241.548L256.419 271.775L308.23 271.918L308.037 271.725C308.037 285.321 308.037 300.228 308.037 315.871L308.244 315.671H308.201L236.217 315.714L236.375 315.871C236.339 302.367 236.31 291.333 236.289 283.668C236.289 279.833 236.289 276.841 236.253 274.795C236.253 273.778 236.253 273.006 236.253 272.469C236.253 271.932 236.188 271.753 236.188 271.753Z" fill="#E0E0E0"/>
<path d="M260.062 288.348H281.494V282.559H260.062V288.348Z" fill="#E0E0E0"/>
<path d="M283.19 223.048H261.614C261.206 223.048 260.815 222.886 260.526 222.598C260.238 222.309 260.076 221.918 260.076 221.51V220.229H284.729V221.51C284.729 221.918 284.567 222.309 284.278 222.598C283.99 222.886 283.598 223.048 283.19 223.048Z" fill="#E0E0E0"/>
<path d="M236.389 220.222C236.389 220.222 236.389 220.479 236.389 220.994C236.389 221.51 236.389 222.297 236.389 223.292C236.389 225.331 236.389 228.301 236.346 232.129C236.346 239.822 236.296 250.886 236.26 264.44V264.597H236.425L308.409 264.64H308.652V264.44C308.652 248.789 308.652 233.868 308.652 220.293V220.1H308.466L256.526 220.143L241.706 220.186H237.777H236.768H236.439H236.797H237.82H241.785L256.655 220.257L308.466 220.393L308.273 220.207C308.273 233.804 308.273 248.703 308.273 264.354L308.48 264.146H308.437L236.453 264.189L236.611 264.354C236.575 250.843 236.546 239.815 236.525 232.151C236.525 228.315 236.525 225.324 236.525 223.277C236.525 222.268 236.525 221.488 236.525 220.952C236.525 220.415 236.389 220.222 236.389 220.222Z" fill="#E0E0E0"/>
<path d="M261.679 236.473H283.112V230.684H261.679V236.473Z" fill="#E0E0E0"/>
<path d="M282.253 119.062H260.67C260.262 119.062 259.87 118.9 259.582 118.611C259.293 118.323 259.131 117.931 259.131 117.523V116.242H283.791V117.523C283.791 117.725 283.752 117.925 283.674 118.112C283.597 118.299 283.484 118.468 283.341 118.611C283.198 118.754 283.028 118.867 282.842 118.945C282.655 119.022 282.455 119.062 282.253 119.062Z" fill="#E0E0E0"/>
<path d="M236.224 116.235C236.224 116.235 236.224 116.493 236.224 117.008C236.224 117.523 236.224 118.311 236.224 119.305C236.224 121.345 236.224 124.315 236.189 128.143C236.189 135.836 236.138 146.899 236.103 160.453V160.611H236.26L308.251 160.661H308.495V160.453C308.495 144.803 308.495 129.882 308.495 116.307V116.114H308.23L256.297 116.156L241.47 116.199H237.541H236.539H236.203C236.322 116.206 236.441 116.206 236.561 116.199H237.584H241.556L256.419 116.264L308.23 116.4L308.037 116.214C308.037 129.81 308.037 144.71 308.037 160.36L308.244 160.153L236.253 160.196L236.418 160.36C236.382 146.849 236.353 135.822 236.332 128.157C236.332 124.322 236.296 121.33 236.289 119.284C236.289 118.275 236.289 117.495 236.289 116.958C236.289 116.421 236.224 116.235 236.224 116.235Z" fill="#E0E0E0"/>
<path d="M261.128 131.449H282.561V125.66H261.128V131.449Z" fill="#E0E0E0"/>
<path d="M282.253 171.037H260.67C260.262 171.037 259.87 170.875 259.582 170.587C259.293 170.298 259.131 169.907 259.131 169.499V168.175H283.791V169.456C283.797 169.661 283.762 169.866 283.687 170.058C283.612 170.249 283.5 170.424 283.356 170.571C283.213 170.719 283.041 170.836 282.852 170.916C282.662 170.996 282.459 171.037 282.253 171.037Z" fill="#E0E0E0"/>
<path d="M236.224 168.189C236.224 168.189 236.224 168.447 236.224 168.962C236.224 169.477 236.224 170.257 236.224 171.259C236.224 173.299 236.224 176.268 236.189 180.097C236.189 187.79 236.138 198.853 236.103 212.4V212.557H236.26L308.251 212.6H308.495V212.393C308.495 196.749 308.495 181.829 308.495 168.246V168.06H308.23L256.297 168.103H241.47H237.541H236.539H236.203H236.561H237.584H241.556L256.419 168.168L308.23 168.311L308.037 168.117C308.037 181.714 308.037 196.621 308.037 212.264L308.244 212.064L236.253 212.106L236.418 212.264C236.382 198.76 236.353 187.725 236.332 180.061C236.332 176.225 236.296 173.234 236.289 171.187C236.289 170.171 236.289 169.398 236.289 168.862C236.289 168.325 236.224 168.189 236.224 168.189Z" fill="#E0E0E0"/>
<path d="M261.128 183.41H282.561V177.621H261.128V183.41Z" fill="#E0E0E0"/>
<path d="M119.042 12.5995H41.6908V81.7997H119.042V12.5995Z" fill="#FAFAFA"/>
<path d="M119.042 81.7997C119.042 81.7997 119.042 81.356 119.042 80.5116C119.042 79.6671 119.042 78.422 119.042 76.8047C119.042 73.5558 119.042 68.8112 118.992 62.7571C118.992 50.6703 118.942 33.4168 118.906 12.5994L119.078 12.7712H41.7337L41.9413 12.5637C41.9413 37.7391 41.9413 61.426 41.9413 81.7639L41.7552 81.5778L97.7022 81.6709L113.482 81.721H117.661H118.734H119.106H118.756H117.697H113.56L97.8167 81.7639L41.7552 81.8569H41.5763V81.678C41.5763 61.3402 41.5763 37.6532 41.5763 12.4778V12.2703H41.791H119.135H119.314V12.4492C119.271 33.288 119.242 50.5987 119.221 62.7213C119.221 68.754 119.185 73.4556 119.178 76.726C119.178 78.3289 119.178 79.5884 119.178 80.4042C119.178 81.22 119.042 81.7997 119.042 81.7997Z" fill="#E0E0E0"/>
<path d="M71.3603 24.8938C71.3603 25.0083 67.2884 25.1013 62.2648 25.1013C57.2412 25.1013 53.1765 25.0083 53.1765 24.8938C53.1765 24.7793 57.2412 24.6862 62.2648 24.6862C67.2884 24.6862 71.3603 24.7793 71.3603 24.8938Z" fill="#E0E0E0"/>
<path d="M104.128 30.0748C104.128 30.1893 92.9433 30.2824 79.1462 30.2824C65.3491 30.2824 54.1855 30.2037 54.1855 30.0748C54.1855 29.946 65.3706 29.8673 79.1677 29.8673C92.9648 29.8673 104.128 29.9747 104.128 30.0748Z" fill="#E0E0E0"/>
<path d="M56.5542 38.8912H53.2981V42.1473H56.5542V38.8912Z" fill="#E0E0E0"/>
<path d="M64.5762 38.8912H61.3202V42.1473H64.5762V38.8912Z" fill="#E0E0E0"/>
<path d="M72.7486 38.741H69.4925V41.997H72.7486V38.741Z" fill="#E0E0E0"/>
<path d="M80.6204 38.8912H77.3643V42.1473H80.6204V38.8912Z" fill="#E0E0E0"/>
<path d="M88.6425 38.8912H85.3864V42.1473H88.6425V38.8912Z" fill="#E0E0E0"/>
<path d="M96.6645 38.8912H93.4085V42.1473H96.6645V38.8912Z" fill="#E0E0E0"/>
<path d="M104.687 38.8912H101.431V42.1473H104.687V38.8912Z" fill="#EBEBEB"/>
<path d="M56.5542 45.8184H53.2981V49.0745H56.5542V45.8184Z" fill="#EBEBEB"/>
<path d="M64.5762 45.8184H61.3202V49.0745H64.5762V45.8184Z" fill="#E0E0E0"/>
<path d="M72.5983 45.8184H69.3423V49.0745H72.5983V45.8184Z" fill="#EBEBEB"/>
<path d="M80.6204 45.8184H77.3643V49.0745H80.6204V45.8184Z" fill="#E0E0E0"/>
<path d="M88.6425 45.8184H85.3864V49.0745H88.6425V45.8184Z" fill="#E0E0E0"/>
<path d="M96.8077 45.6682H93.5516V48.9242H96.8077V45.6682Z" fill="#E0E0E0"/>
<path d="M104.687 45.8184H101.431V49.0745H104.687V45.8184Z" fill="#E0E0E0"/>
<path d="M56.5542 52.7456H53.2981V56.0017H56.5542V52.7456Z" fill="#E0E0E0"/>
<path d="M64.7265 52.5953H61.4705V55.8514H64.7265V52.5953Z" fill="#E0E0E0"/>
<path d="M72.5983 52.7456H69.3423V56.0017H72.5983V52.7456Z" fill="#E0E0E0"/>
<path d="M80.6204 52.7456H77.3643V56.0017H80.6204V52.7456Z" fill="#EBEBEB"/>
<path d="M88.6425 52.7456H85.3864V56.0017H88.6425V52.7456Z" fill="#E0E0E0"/>
<path d="M96.6645 52.7456H93.4085V56.0017H96.6645V52.7456Z" fill="#E0E0E0"/>
<path d="M104.687 52.7456H101.431V56.0017H104.687V52.7456Z" fill="#E0E0E0"/>
<path d="M56.5542 59.6728H53.2981V62.9289H56.5542V59.6728Z" fill="#E0E0E0"/>
<path d="M64.5762 59.6728H61.3202V62.9289H64.5762V59.6728Z" fill="#E0E0E0"/>
<path d="M72.5983 59.6728H69.3423V62.9289H72.5983V59.6728Z" fill="#E0E0E0"/>
<path d="M80.7707 59.5297H77.5146V62.7857H80.7707V59.5297Z" fill="#E0E0E0"/>
<path d="M88.6425 59.6728H85.3864V62.9289H88.6425V59.6728Z" fill="#E0E0E0"/>
<path d="M96.6645 59.6728H93.4085V62.9289H96.6645V59.6728Z" fill="#EBEBEB"/>
<path d="M104.687 59.6728H101.431V62.9289H104.687V59.6728Z" fill="#E0E0E0"/>
<path d="M56.5542 66.5999H53.2981V69.856H56.5542V66.5999Z" fill="#E0E0E0"/>
<path d="M64.5762 66.5999H61.3202V69.856H64.5762V66.5999Z" fill="#EBEBEB"/>
<path d="M72.5983 66.5999H69.3423V69.856H72.5983V66.5999Z" fill="#E0E0E0"/>
<path d="M80.6204 66.5999H77.3643V69.856H80.6204V66.5999Z" fill="#E0E0E0"/>
<path d="M88.6425 66.5999H85.3864V69.856H88.6425V66.5999Z" fill="#E0E0E0"/>
<path d="M96.8077 66.4568H93.5516V69.7129H96.8077V66.4568Z" fill="#E0E0E0"/>
<path d="M104.687 66.5999H101.431V69.856H104.687V66.5999Z" fill="#E0E0E0"/>
<path d="M184.062 115.635L157.386 125.677L164.156 143.659L190.831 133.617L184.062 115.635Z" fill="#EBEBEB"/>
<path d="M184.228 115.834C184.188 115.952 184.135 116.065 184.07 116.171L183.576 117.101C183.118 117.924 182.481 119.083 181.701 120.5C180.084 123.363 177.866 127.327 175.418 131.7L175.368 131.793H175.261L175.018 131.714L162.652 127.656L158.909 126.397L157.9 126.046C157.778 126.011 157.661 125.963 157.549 125.903C157.673 125.926 157.795 125.957 157.914 125.996L158.945 126.304L162.709 127.485L175.125 131.435L175.368 131.514L175.211 131.578C177.694 127.22 179.927 123.284 181.565 120.414L183.505 117.051L184.049 116.142C184.099 116.034 184.159 115.931 184.228 115.834Z" fill="#E0E0E0"/>
<path d="M164.319 143.858C164.255 143.858 165.328 140.616 166.731 136.666C168.133 132.716 169.314 129.51 169.378 129.56C169.443 129.61 168.369 132.809 166.974 136.716C165.579 140.623 164.391 143.858 164.319 143.858Z" fill="#E0E0E0"/>
<path d="M178.166 126.003C178.202 125.939 181.107 127.642 184.65 129.796C188.192 131.95 191.033 133.754 190.997 133.818C190.961 133.882 188.056 132.179 184.514 130.018C180.971 127.857 178.13 126.061 178.166 126.003Z" fill="#E0E0E0"/>
<path d="M218.606 58.8785C219.287 58.465 220.022 58.1448 220.788 57.9267L221.239 55.7798L224.889 55.7154L225.418 57.8623C226.192 58.0512 226.936 58.3449 227.63 58.7353L229.476 57.5259L232.102 60.0592L230.957 61.9485C231.37 62.6177 231.691 63.3399 231.909 64.0953L234.056 64.539L234.12 68.1958L231.974 68.7182C231.783 69.4922 231.492 70.238 231.108 70.9366L232.317 72.7757L229.777 75.4021L227.894 74.2642C227.211 74.6726 226.477 74.9902 225.712 75.2089L225.261 77.3557L221.611 77.4201L221.082 75.2733C220.309 75.0812 219.566 74.7876 218.871 74.4002L217.024 75.6096L214.398 73.0692L215.543 71.1871C215.128 70.5061 214.808 69.7718 214.591 69.0044L212.444 68.5536L212.38 64.904L214.527 64.3744C214.716 63.6023 215.007 62.8587 215.393 62.1631L214.183 60.3168L216.724 57.6905L218.606 58.8355V58.8785ZM220.552 63.7375C220.012 64.2947 219.65 64.9997 219.51 65.7631C219.371 66.5265 219.462 67.314 219.77 68.026C220.079 68.738 220.591 69.3425 221.244 69.7629C221.896 70.1833 222.658 70.4008 223.434 70.3877C224.21 70.3747 224.965 70.1318 225.602 69.6897C226.24 69.2476 226.732 68.6263 227.017 67.9043C227.301 67.1823 227.365 66.3922 227.2 65.6339C227.036 64.8756 226.65 64.1833 226.091 63.6445C225.723 63.2847 225.288 63.001 224.811 62.8095C224.333 62.618 223.823 62.5225 223.308 62.5285C222.794 62.5345 222.286 62.6418 221.813 62.8444C221.34 63.0469 220.912 63.3407 220.552 63.7089V63.7375Z" fill="#E0E0E0"/>
<path d="M220.552 63.7089C220.756 63.4602 220.997 63.2452 221.268 63.072C221.739 62.7661 222.271 62.5639 222.826 62.4789C223.382 62.3939 223.949 62.428 224.49 62.5789C225.032 62.7298 225.535 62.9941 225.966 63.3542C226.398 63.7143 226.748 64.1621 226.993 64.6678C227.347 65.3806 227.479 66.1833 227.372 66.9721C227.257 67.8217 226.876 68.6132 226.284 69.2334C225.688 69.8486 224.911 70.2573 224.066 70.3999C223.668 70.4642 223.262 70.4642 222.864 70.3999C222.478 70.3518 222.101 70.2456 221.747 70.085C221.094 69.7887 220.531 69.3244 220.116 68.7396C219.76 68.2279 219.529 67.6395 219.443 67.0222C219.307 66.1296 219.49 65.2177 219.958 64.4459C220.121 64.1764 220.327 63.9347 220.567 63.7303C220.567 63.7303 220.33 63.9879 220.03 64.5247C219.61 65.2902 219.458 66.1747 219.601 67.0365C219.694 67.6256 219.924 68.1845 220.273 68.6681C220.673 69.22 221.211 69.6569 221.833 69.9347C222.168 70.0831 222.522 70.182 222.885 70.2281C223.264 70.2887 223.651 70.2887 224.03 70.2281C224.828 70.0921 225.562 69.7062 226.127 69.1261C226.687 68.5362 227.048 67.7852 227.157 66.9792C227.247 66.2448 227.126 65.5 226.807 64.8324C226.51 64.217 226.056 63.6911 225.49 63.3081C224.995 62.9777 224.428 62.7693 223.837 62.6998C222.973 62.588 222.096 62.7694 221.347 63.2151C220.803 63.4942 220.574 63.7589 220.552 63.7089Z" fill="#E0E0E0"/>
<path d="M218.606 58.8785L218.484 58.814L218.126 58.6065L216.695 57.7621H216.738L214.219 60.4099V60.3383L215.436 62.1774C215.054 62.8704 214.767 63.6118 214.584 64.3816V64.4245H214.541L212.394 64.9612L212.451 64.8825C212.451 66.0275 212.502 67.2512 212.523 68.5321L212.459 68.4463L214.606 68.8899H214.656V68.94C214.874 69.6943 215.192 70.4163 215.6 71.0869V71.137V71.1871L214.484 73.1693V73.0405L217.117 75.5738H216.989L218.828 74.3573L218.885 74.3215L218.942 74.3573C219.631 74.7392 220.367 75.028 221.132 75.216H221.196V75.2804L221.719 77.4273L221.611 77.3485L225.261 77.2841L225.154 77.37C225.297 76.6544 225.454 75.9388 225.605 75.2232V75.1588H225.669C226.424 74.947 227.147 74.6315 227.816 74.2213H227.88H227.937L229.82 75.3663H229.684L232.217 72.74V72.8759C231.809 72.2533 231.401 71.6379 231.007 71.0296L230.972 70.9724V70.9151C231.357 70.2271 231.648 69.4906 231.838 68.7254V68.6609H231.902L234.049 68.1385L233.97 68.2459C233.97 67.0007 233.949 65.7842 233.906 64.5962L233.992 64.6964L231.845 64.2384H231.787V64.174C231.574 63.4202 231.262 62.6982 230.857 62.0272V61.9771V61.927L232.002 60.0378V60.1523L229.383 57.6118H229.49L227.644 58.814H227.601H227.558C226.867 58.4299 226.129 58.1387 225.361 57.9481H225.318V57.9052C225.132 57.1252 224.96 56.4239 224.796 55.7584L224.867 55.8085L221.211 55.8514H221.261C221.075 56.7101 220.924 57.4186 220.796 57.9982C220.219 58.1553 219.66 58.3711 219.128 58.6423L218.735 58.8427L218.599 58.9142C218.635 58.8804 218.676 58.8516 218.72 58.8284L219.107 58.6065C219.638 58.3235 220.197 58.0956 220.774 57.9267C220.889 57.3399 221.032 56.6314 221.204 55.7798V55.7369H221.246L224.896 55.6582H224.953V55.7083C225.118 56.3738 225.297 57.0751 225.49 57.8551L225.433 57.805C226.215 57.9946 226.968 58.2882 227.673 58.6781H227.587L229.433 57.4687L229.49 57.4257L229.54 57.4758L232.167 60.0091L232.224 60.0592L232.181 60.1236L231.043 62.0129V61.9127C231.462 62.6002 231.784 63.3418 232.002 64.1168L231.931 64.0452L234.077 64.4889H234.156V64.5676C234.156 65.7555 234.206 66.9721 234.228 68.2173V68.3031H234.142L231.995 68.8327L232.074 68.754C231.881 69.5364 231.585 70.2897 231.194 70.9939V70.865L232.41 72.7113L232.453 72.7829L232.396 72.8473L229.855 75.4736L229.798 75.538L229.719 75.4951L227.83 74.3501H227.945C227.257 74.7681 226.515 75.0907 225.741 75.309L225.819 75.2232C225.662 75.9388 225.512 76.7045 225.368 77.37V77.463H225.283L221.633 77.5203H221.547V77.4344C221.361 76.7188 221.182 75.9602 221.017 75.2876L221.096 75.3663C220.315 75.1711 219.562 74.8752 218.856 74.4861H218.971L217.124 75.6955L217.053 75.7384L216.996 75.6812L214.369 73.1407L214.312 73.0906L214.355 73.0191C214.756 72.3607 215.142 71.7166 215.5 71.137V71.2372C215.085 70.5464 214.764 69.8025 214.548 69.0259L214.613 69.0903L212.466 68.6395H212.394V68.5679C212.394 67.287 212.351 66.0704 212.337 64.9183V64.8539H212.394L214.541 64.3315L214.484 64.4245C214.677 63.6444 214.973 62.8935 215.364 62.1918V62.2633C214.928 61.5978 214.527 60.9752 214.162 60.4099L216.709 57.7979L218.141 58.6566L218.491 58.8856C218.57 58.8427 218.606 58.8713 218.606 58.8785Z" fill="#E0E0E0"/>
<path d="M41.6622 317.267C40.3526 316.15 37.44 312.594 39.6871 308.464C40.51 306.954 42.2633 306.203 43.8448 305.538C45.4263 304.872 47.0937 304.292 48.4033 303.176C50.8793 301.072 51.5592 297.58 53.1979 294.775C55.0872 291.554 58.6008 289.136 62.3149 289.307C66.6086 289.501 70.1151 292.978 71.7253 296.936C73.3354 300.893 73.3927 305.294 73.4213 309.574C73.4213 311.942 73.3354 314.583 71.5965 316.207C70.0006 317.682 67.589 317.696 65.4207 317.639L42.1703 316.923" fill="#F5F5F5"/>
<path d="M86.1235 253.348H24.9883L36.0016 319.013C36.2279 320.381 36.8384 321.658 37.762 322.693C38.6856 323.728 39.8843 324.479 41.2185 324.859L41.4332 324.924C41.6121 324.967 41.791 325.031 41.977 325.06C42.3871 325.144 42.8038 325.192 43.2222 325.203V325.267L43.5228 325.217H70.7807C71.2826 325.217 71.7835 325.169 72.2763 325.074C73.8708 324.826 75.34 324.062 76.4582 322.898C77.5764 321.735 78.2819 320.236 78.4664 318.633L83.7691 273.385L84.0124 271.581L86.1163 253.691L86.1235 253.348ZM74.5949 295.225H68.3189L68.9487 276.169H76.2193L74.5949 295.225ZM76.8276 276.169H82.8102L80.5703 295.225H75.2032L76.8276 276.169ZM58.9372 316.358L58.5579 299.798H67.5604L67.0093 316.358H58.9372ZM49.1332 299.798H57.9138L58.2931 316.358H50.4213L49.1332 299.798ZM49.8488 316.358H42.4565C41.7409 311.885 40.8464 306.074 39.8588 299.798H48.5249L49.8488 316.358ZM48.8183 295.225L47.337 276.169H57.37L57.8065 295.225H48.8183ZM58.4506 295.225L58.014 276.169H68.3404L67.7107 295.225H58.4506ZM57.9067 271.61L57.4988 253.963H69.0846L68.4978 271.596L57.9067 271.61ZM57.2984 271.61H46.9434L45.5981 253.949H56.8619L57.2984 271.61ZM46.3137 271.596H35.4148C35.0284 269.163 34.6634 266.851 34.3271 264.776C33.1893 257.62 32.7599 254.958 32.5237 253.949H44.9612L46.3137 271.596ZM46.6715 276.169L48.1528 295.225H39.1575C38.8498 293.293 38.5421 291.34 38.2344 289.379L36.1519 276.169H46.6715ZM38.5278 295.225H32.6239L29.4323 276.169H35.5222C36.4525 282.058 37.4901 288.613 38.5278 295.225ZM39.2434 299.798C40.1451 305.523 41.0253 311.177 41.8411 316.358H36.1734L33.3896 299.798H39.2434ZM67.6176 316.358L68.1687 299.798H74.2228L72.7915 316.358H67.6176ZM69.0989 271.596L69.6858 253.949H78.1157L76.6129 271.596H69.0989ZM31.9441 253.949C32.1874 255.222 33.3038 262.171 34.8066 271.596H28.6666L25.7039 253.949H31.9441ZM78.1229 316.358H73.3927L74.8239 299.798H80.0765L78.1229 316.358ZM83.3755 271.596H77.2212L78.7312 253.949H85.4437L83.3755 271.596Z" fill="#E0E0E0"/>
<path d="M335.065 324.544C335.065 324.652 269.543 324.73 188.729 324.73C107.914 324.73 42.3778 324.652 42.3778 324.544C42.3778 324.437 107.885 324.358 188.729 324.358C269.572 324.358 335.065 324.444 335.065 324.544Z" fill="#263238"/>
<path d="M272.728 161.627C272.728 161.627 281.179 151.902 284.371 142.169C287.563 132.437 286.046 133.582 286.046 133.582C286.046 133.582 281.752 143.028 278.474 147.594C275.197 152.159 269.379 158.857 269.379 158.857L272.728 161.627Z" fill="#455A64"/>
<path d="M271.018 135.07C271.075 134.972 271.165 134.896 271.272 134.856C271.379 134.816 271.497 134.815 271.605 134.852C271.713 134.889 271.805 134.962 271.865 135.06C271.925 135.157 271.949 135.272 271.934 135.385C271.418 138.806 270.302 146.835 270.345 152.023C270.402 158.779 270.345 161.391 270.345 161.391H266.824C266.824 161.391 267.454 147.422 268.255 143.164C268.775 140.345 269.706 137.618 271.018 135.07Z" fill="#455A64"/>
<path d="M269.128 160.26C267.652 156.919 266.675 153.38 266.23 149.755C265.944 147.264 266.459 143.901 267.225 139.421C267.522 137.768 267.673 136.092 267.676 134.412C267.672 134.227 267.607 134.048 267.491 133.903C267.375 133.758 267.215 133.655 267.035 133.611C266.856 133.566 266.666 133.581 266.496 133.655C266.326 133.729 266.185 133.856 266.094 134.018C265.243 135.589 264.585 137.256 264.133 138.985C263.282 143.414 262.316 145.626 263.053 149.833C263.79 154.041 266.516 160.503 266.516 160.503L269.128 160.26Z" fill="#455A64"/>
<path d="M265.958 160.539C265.958 160.539 256.655 140.595 256.033 137.639C255.41 134.684 253.206 127.857 252.948 128.243C252.691 128.63 252.304 132.236 253.979 136.351C255.653 140.466 262.788 161.147 262.788 161.147H265.958" fill="#455A64"/>
<path d="M270.145 159.652C270.145 159.652 270.238 159.594 270.402 159.473C270.567 159.351 270.817 159.172 271.118 158.922C271.984 158.229 272.815 157.494 273.608 156.718C276.214 154.145 278.471 151.241 280.321 148.08C282.18 144.922 283.728 141.591 284.944 138.133C285.416 136.809 285.752 135.729 285.974 134.97C286.089 134.598 286.167 134.305 286.217 134.104C286.252 134.005 286.276 133.901 286.289 133.796C286.289 133.796 286.246 133.897 286.182 134.09L285.902 134.949C285.659 135.664 285.294 136.773 284.815 138.09C283.572 141.523 282.02 144.835 280.178 147.987C278.33 151.138 276.092 154.043 273.515 156.632C272.528 157.619 271.676 158.371 271.075 158.879L270.359 159.451C270.282 159.512 270.21 159.579 270.145 159.652Z" fill="#263238"/>
<path d="M269.128 150.084C269.174 149.891 269.203 149.695 269.214 149.497C269.257 149.082 269.314 148.545 269.379 147.894C269.529 146.549 269.758 144.688 270.094 142.641C270.431 140.595 270.81 138.756 271.075 137.432L271.411 135.857C271.463 135.668 271.496 135.474 271.511 135.278C271.441 135.463 271.382 135.652 271.333 135.843C271.232 136.208 271.096 136.738 270.932 137.403C270.617 138.72 270.216 140.559 269.901 142.613C269.586 144.667 269.365 146.527 269.25 147.88C269.193 148.56 269.157 149.111 269.143 149.49C269.118 149.687 269.113 149.886 269.128 150.084Z" fill="#263238"/>
<path d="M266.953 133.897C266.91 133.977 266.874 134.061 266.846 134.147L266.566 134.863C266.445 135.185 266.302 135.578 266.166 136.051C266.03 136.523 265.851 137.045 265.715 137.646C265.643 137.947 265.565 138.262 265.486 138.584C265.407 138.906 265.357 139.257 265.286 139.614C265.128 140.33 265.035 141.089 264.928 141.89C264.723 143.645 264.649 145.413 264.706 147.179C264.776 148.946 264.972 150.706 265.293 152.445C265.464 153.24 265.615 153.998 265.815 154.692C265.915 155.043 265.994 155.408 266.094 155.702L266.388 156.625C266.566 157.211 266.781 157.727 266.953 158.185C267.125 158.643 267.289 159.029 267.44 159.337L267.769 160.052C267.804 160.138 267.847 160.219 267.898 160.296C267.898 160.296 267.898 160.203 267.805 160.031C267.711 159.859 267.633 159.602 267.504 159.315C267.375 159.029 267.218 158.6 267.06 158.149C266.903 157.698 266.688 157.176 266.524 156.589L266.237 155.666C266.144 155.351 266.066 155.007 265.973 154.657C265.779 153.941 265.636 153.225 265.472 152.417C265.165 150.688 264.971 148.94 264.892 147.186C264.841 145.43 264.911 143.672 265.099 141.926C265.207 141.124 265.293 140.359 265.436 139.657C265.507 139.3 265.557 138.942 265.629 138.634C265.701 138.326 265.779 137.99 265.844 137.697C265.973 137.095 266.137 136.566 266.266 136.094C266.395 135.621 266.524 135.228 266.631 134.899L266.874 134.147C266.91 134.067 266.937 133.983 266.953 133.897Z" fill="#263238"/>
<path d="M253.056 128.644C253.056 128.644 253.056 128.644 253.056 128.737V128.995C253.099 129.224 253.149 129.56 253.242 129.989C253.421 130.848 253.721 132.079 254.186 133.567C254.651 135.056 255.281 136.816 256.033 138.749C256.784 140.681 257.65 142.785 258.473 145.024C259.296 147.264 259.954 149.44 260.562 151.422C261.171 153.404 261.729 155.179 262.28 156.653C262.694 157.814 263.172 158.951 263.711 160.06C263.897 160.453 264.069 160.775 264.183 160.954L264.312 161.183C264.326 161.209 264.343 161.233 264.362 161.255C264.353 161.225 264.341 161.196 264.327 161.169L264.219 160.933C264.119 160.725 263.962 160.425 263.783 160.031C263.247 158.914 262.769 157.77 262.352 156.603C261.815 155.129 261.264 153.354 260.67 151.372C260.076 149.39 259.432 147.2 258.595 144.931C257.757 142.663 256.891 140.588 256.14 138.663C255.389 136.738 254.709 134.992 254.251 133.503C253.793 132.015 253.456 130.784 253.249 129.925C253.149 129.503 253.084 129.166 253.034 128.945L252.97 128.687L253.056 128.644Z" fill="#263238"/>
<path d="M281.673 124.243C281.802 124.122 281.967 124.047 282.142 124.029C282.318 124.011 282.495 124.052 282.645 124.145C282.795 124.238 282.91 124.378 282.973 124.543C283.035 124.708 283.041 124.89 282.99 125.059C282.667 126.083 282.277 127.084 281.823 128.057C280.543 130.769 276.814 140.495 275.039 145.84C273.265 151.186 270.817 161.147 270.817 161.147L267.067 160.539C267.067 160.539 270.495 144.166 273.844 138.262C276.535 133.517 279.226 126.683 281.673 124.243Z" fill="#455A64"/>
<path d="M274.016 149.182C273.935 149.322 273.87 149.471 273.823 149.626C273.716 149.919 273.565 150.342 273.393 150.885C273.05 151.952 272.628 153.447 272.198 155.108C271.769 156.768 271.418 158.271 271.175 159.365C271.061 159.888 270.968 160.317 270.896 160.668C270.852 160.824 270.825 160.985 270.817 161.147C270.885 160.999 270.935 160.842 270.968 160.682C271.061 160.346 271.175 159.909 271.311 159.401L272.392 155.158C272.814 153.497 273.215 152.002 273.529 150.928C273.673 150.42 273.801 149.991 273.894 149.655C273.953 149.502 273.994 149.344 274.016 149.182Z" fill="#263238"/>
<path d="M268.935 160.847V160.747L268.978 160.453C269.014 160.188 269.05 159.809 269.128 159.315C269.264 158.328 269.515 156.911 269.916 155.186C270.393 153.16 270.979 151.161 271.669 149.197C272.435 146.978 273.401 144.581 274.496 142.098C276.7 137.138 278.897 132.745 280.342 129.488C281.058 127.871 281.645 126.547 282.017 125.624C282.203 125.159 282.339 124.801 282.439 124.558C282.482 124.443 282.51 124.35 282.539 124.279C282.568 124.207 282.575 124.179 282.539 124.179L282.496 124.272C282.46 124.343 282.425 124.429 282.374 124.544C282.26 124.794 282.11 125.145 281.916 125.588C281.523 126.504 280.936 127.821 280.192 129.431C278.711 132.666 276.492 137.053 274.281 142.019C273.186 144.502 272.227 146.907 271.468 149.139C270.782 151.109 270.208 153.116 269.751 155.15C269.443 156.524 269.204 157.911 269.035 159.308C268.971 159.795 268.95 160.188 268.921 160.446V160.739C268.926 160.811 268.93 160.847 268.935 160.847Z" fill="#263238"/>
<path d="M267.067 160.539C267.128 160.333 267.171 160.122 267.196 159.909C267.268 159.473 267.368 158.893 267.49 158.192C267.747 156.761 268.141 154.735 268.706 152.56C269.272 150.384 269.901 148.445 270.388 147.057C270.624 146.384 270.824 145.833 270.975 145.411C271.055 145.214 271.12 145.01 271.168 144.803C271.066 144.989 270.977 145.183 270.903 145.382C270.739 145.762 270.51 146.313 270.252 147.007C269.579 148.81 268.999 150.647 268.513 152.51C267.948 154.657 267.576 156.703 267.347 158.163C267.239 158.879 267.16 159.487 267.118 159.902C267.085 160.113 267.068 160.326 267.067 160.539Z" fill="#263238"/>
<path d="M259.382 177.821H274.002V160.002H259.382V177.821Z" fill="#FED36A"/>
<g opacity="0.3">
<path d="M259.382 177.821H274.002V160.002H259.382V177.821Z" fill="black"/>
</g>
<path d="M264.04 177.821H277.015V160.002H264.04V177.821Z" fill="#FED36A"/>
<path d="M142.603 13.2521L115.457 21.9417L121.315 40.2414L148.461 31.5518L142.603 13.2521Z" fill="#FED36A"/>
<path d="M142.765 13.4296C142.715 13.5445 142.655 13.6546 142.586 13.7587C142.45 13.9877 142.271 14.2883 142.042 14.6604L140.002 17.9666L133.168 28.8368L133.111 28.9227H133.011L132.775 28.8297L120.609 24.1638L116.938 22.7326L115.943 22.3318C115.824 22.2898 115.709 22.2371 115.6 22.1744C115.722 22.1986 115.842 22.2346 115.958 22.2818L116.974 22.6396L120.674 24.0064L132.839 28.6078L133.082 28.6937L132.925 28.7509L139.831 17.9165C140.711 16.5568 141.426 15.4476 141.942 14.6604L142.521 13.7802C142.592 13.6562 142.673 13.5388 142.765 13.4296Z" fill="#263238"/>
<path d="M121.454 40.4227C121.389 40.4227 122.627 37.231 124.216 33.3595C125.805 29.488 127.157 26.3679 127.221 26.3966C127.286 26.4252 126.055 29.5882 124.459 33.4597C122.863 37.3312 121.539 40.4513 121.454 40.4227Z" fill="#263238"/>
<path d="M136.195 23.2764C136.238 23.2192 139.058 25.0655 142.478 27.3984C145.899 29.7313 148.661 31.6921 148.618 31.6921C148.575 31.6921 145.756 29.9102 142.335 27.5773C138.915 25.2444 136.152 23.3408 136.195 23.2764Z" fill="#263238"/>
<path d="M262.545 52.9245L242.343 44.3872C241.683 44.0977 241.163 43.5604 240.895 42.8911C240.627 42.2217 240.633 41.474 240.912 40.8091L252.762 12.8427C253.05 12.1813 253.587 11.66 254.257 11.3921C254.927 11.1242 255.676 11.1311 256.34 11.4115L269.157 16.8359L274.739 31.2627L266.151 51.5362C265.854 52.1958 265.309 52.7116 264.633 52.9715C263.958 53.2314 263.208 53.2145 262.545 52.9245Z" fill="#FED36A"/>
<path d="M269.15 16.7643L265.815 24.6361C265.683 24.9447 265.613 25.2763 265.61 25.612C265.607 25.9476 265.67 26.2806 265.795 26.5918C265.921 26.903 266.107 27.1863 266.342 27.4254C266.578 27.6645 266.858 27.8548 267.168 27.9852L274.732 31.1912L269.15 16.7643Z" fill="#FED36A"/>
<g opacity="0.2">
<path d="M265.622 25.3732C265.379 25.9718 265.346 26.6348 265.528 27.2545C265.71 27.8742 266.096 28.4142 266.624 28.7867C266.695 28.8455 266.769 28.9005 266.846 28.9513C267.762 29.5453 273.773 33.4597 273.837 33.3094L274.732 31.1625L267.168 27.9566C267.168 27.9566 265.293 27.1193 265.622 25.3732Z" fill="black"/>
</g>
<g opacity="0.3">
<path d="M269.15 16.7643L265.815 24.6361C265.683 24.9447 265.613 25.2763 265.61 25.612C265.607 25.9476 265.67 26.2806 265.795 26.5918C265.921 26.903 266.107 27.1863 266.342 27.4254C266.578 27.6645 266.858 27.8548 267.168 27.9852L274.732 31.1912L269.15 16.7643Z" fill="white"/>
</g>
<path d="M264.255 23.6342C262.627 23.1603 261.038 22.5597 259.503 21.838C257.918 21.2394 256.379 20.5217 254.902 19.6912C256.534 20.1606 258.126 20.7613 259.661 21.4874C261.246 22.0815 262.782 22.7993 264.255 23.6342Z" fill="#FAFAFA"/>
<path d="M268.406 30.6044C268.363 30.7045 264.885 29.3306 260.634 27.5272C256.383 25.7238 252.977 24.1924 253.02 24.0851C253.063 23.9777 256.541 25.366 260.791 27.1622C265.042 28.9584 268.449 30.5042 268.406 30.6044Z" fill="#FAFAFA"/>
<path d="M268.22 34.9124C268.177 35.0126 264.384 33.4812 259.754 31.5418C255.124 29.6025 251.403 27.928 251.445 27.8063C251.488 27.6847 255.274 29.2375 259.911 31.1769C264.548 33.1162 268.262 34.8051 268.22 34.9124Z" fill="#FAFAFA"/>
<path d="M266.724 38.4189C266.681 38.5191 262.895 36.9877 258.265 35.0484C253.635 33.109 249.914 31.413 249.95 31.3128C249.986 31.2127 253.786 32.7441 258.416 34.6834C263.046 36.6227 266.774 38.3116 266.724 38.4189Z" fill="#FAFAFA"/>
<path d="M265.25 41.9183C265.207 42.0256 261.414 40.487 256.784 38.5549C252.154 36.6227 248.433 34.9195 248.476 34.8193C248.519 34.7192 252.304 36.2506 256.941 38.1899C261.579 40.1292 265.293 41.8181 265.25 41.9183Z" fill="#FAFAFA"/>
<path d="M263.761 45.4248C263.718 45.5321 259.926 43.9936 255.296 42.0614C250.665 40.1292 246.944 38.4261 246.987 38.3259C247.03 38.2257 250.823 39.7571 255.453 41.6893C260.083 43.6215 263.804 45.3246 263.761 45.4248Z" fill="#FAFAFA"/>
<path d="M194.604 58.857C209.366 58.857 221.332 46.8903 221.332 32.1286C221.332 17.367 209.366 5.40033 194.604 5.40033C179.842 5.40033 167.876 17.367 167.876 32.1286C167.876 46.8903 179.842 58.857 194.604 58.857Z" fill="white"/>
<path d="M221.332 32.1287C221.332 32.1287 221.332 31.9855 221.289 31.6993C221.246 31.413 221.239 30.9837 221.203 30.4255C221.203 30.1464 221.168 29.8387 221.146 29.4952C221.125 29.1517 221.039 28.7796 220.982 28.3788C220.862 27.4483 220.675 26.5275 220.423 25.6237C219.799 23.1239 218.8 20.7329 217.461 18.5319C215.52 15.2986 212.917 12.5128 209.822 10.358C206.728 8.20324 203.212 6.72823 199.506 6.03008C198.397 5.82401 197.276 5.69489 196.15 5.64365C195.577 5.64365 194.998 5.56493 194.418 5.57209L192.657 5.66512C192.364 5.66512 192.064 5.66512 191.77 5.72237L190.883 5.85833C190.296 5.95852 189.695 6.03008 189.101 6.15174C186.665 6.69896 184.31 7.56013 182.095 8.71365C181.537 9.01421 181 9.37202 180.442 9.7012C180.17 9.87295 179.884 10.0232 179.619 10.2164L178.839 10.8033C176.672 12.3768 174.777 14.2936 173.228 16.4781L172.62 17.2939L172.083 18.167L171.547 19.0114C171.358 19.299 171.19 19.6004 171.046 19.9131C170.752 20.5357 170.452 21.1582 170.144 21.788L169.429 23.7488C168.555 26.4579 168.092 29.2825 168.055 32.1287C168.092 34.9725 168.555 37.7947 169.429 40.5014C169.665 41.1598 169.908 41.8181 170.144 42.4693C170.38 43.1205 170.745 43.7217 171.046 44.3371C171.188 44.6529 171.356 44.9568 171.547 45.2459L172.083 46.1261L172.613 46.9992L173.228 47.815C174.022 48.8995 174.89 49.9277 175.826 50.8922C176.773 51.8118 177.779 52.6676 178.839 53.4541L179.619 54.0409C179.884 54.2341 180.17 54.3844 180.442 54.5561C181 54.8853 181.537 55.2717 182.095 55.5437C184.31 56.6972 186.665 57.5584 189.101 58.1056C189.695 58.2344 190.296 58.2988 190.89 58.399L191.77 58.5349C192.071 58.5349 192.364 58.5349 192.657 58.5922L194.447 58.6995C195.026 58.6995 195.606 58.6495 196.178 58.6351C197.305 58.5815 198.426 58.45 199.535 58.2416C203.241 57.546 206.758 56.072 209.853 53.917C212.948 51.7619 215.551 48.9748 217.489 45.7397C218.818 43.5415 219.807 41.1555 220.423 38.6622C220.675 37.7584 220.862 36.8377 220.982 35.9071C221.039 35.5064 221.11 35.1343 221.146 34.7908C221.182 34.4473 221.189 34.1395 221.203 33.8605C221.242 33.307 221.27 32.8848 221.289 32.5938C221.289 32.3076 221.332 32.1573 221.332 32.1573C221.332 32.1573 221.332 32.3076 221.332 32.5938C221.332 32.8801 221.332 33.3094 221.289 33.8605C221.289 34.1467 221.289 34.4544 221.246 34.8051C221.203 35.1557 221.153 35.5207 221.096 35.9214C220.986 36.8466 220.809 37.7626 220.567 38.6622C219.96 41.1825 218.973 43.5956 217.64 45.8184C215.701 49.0981 213.086 51.9276 209.97 54.1189C206.853 56.3102 203.305 57.8131 199.563 58.5278C198.443 58.7383 197.31 58.8721 196.171 58.9285C195.592 58.9285 195.005 59.0073 194.418 59.0001L192.636 58.9142C192.335 58.9142 192.035 58.9142 191.734 58.857L190.868 58.6995C190.267 58.5994 189.659 58.535 189.058 58.4061C187.843 58.14 186.647 57.7909 185.48 57.3613C184.275 56.9315 183.101 56.4198 181.966 55.8299C181.401 55.5222 180.85 55.1644 180.292 54.8281C180.013 54.6491 179.719 54.4989 179.454 54.3057L178.667 53.7117C177.593 52.9158 176.572 52.0504 175.611 51.1212C174.661 50.1425 173.779 49.1 172.971 48.0011L172.348 47.1781L171.804 46.2907L171.268 45.3962C171.073 45.1054 170.903 44.799 170.76 44.4802C170.459 43.8505 170.151 43.2207 169.851 42.5838L169.135 40.5873C168.253 37.8429 167.785 34.9824 167.747 32.1C167.769 29.2272 168.22 26.3738 169.085 23.6343L169.801 21.6449L170.717 19.7413C170.86 19.4234 171.027 19.1172 171.218 18.8253L171.761 17.938L172.298 17.0506L172.921 16.2205C173.731 15.1253 174.613 14.0853 175.561 13.1075C176.522 12.1783 177.543 11.3129 178.617 10.517L179.404 9.92304C179.669 9.72983 179.962 9.57955 180.242 9.40064C180.8 9.07146 181.351 8.68503 181.916 8.40593C184.161 7.2425 186.547 6.37418 189.015 5.82255C189.616 5.7009 190.224 5.62934 190.826 5.52915L191.72 5.39318C192.021 5.39318 192.321 5.39318 192.622 5.33593L194.404 5.25006C194.99 5.25006 195.57 5.30015 196.15 5.32162C197.29 5.38115 198.426 5.51502 199.549 5.72237C203.291 6.43705 206.839 7.93997 209.955 10.1313C213.072 12.3226 215.687 15.1521 217.625 18.4317C218.959 20.6546 219.946 23.0677 220.552 25.5879C220.794 26.4995 220.969 27.4275 221.075 28.3645C221.132 28.7724 221.196 29.1445 221.225 29.488L221.268 30.4255C221.268 30.9765 221.304 31.3987 221.311 31.6993C221.318 31.9998 221.332 32.1287 221.332 32.1287Z" fill="#263238"/>
<path d="M207.278 31.3773C206.928 31.5059 206.569 31.6088 206.204 31.685L203.22 32.4006C200.694 32.9874 197.187 33.7817 193.266 34.6405L193.044 34.6906V33.6529C193.044 29.4666 193.044 25.6738 193.094 22.9187C193.094 21.6019 193.144 20.507 193.158 19.6698C193.148 19.2725 193.172 18.875 193.23 18.4818C193.284 18.8754 193.308 19.2726 193.302 19.6698C193.302 20.507 193.337 21.6019 193.359 22.9187C193.359 25.6666 193.416 29.4594 193.416 33.6529V34.433L193.187 34.2469C197.109 33.3953 200.622 32.6439 203.163 32.1L206.168 31.5061C206.533 31.4289 206.905 31.3858 207.278 31.3773Z" fill="#263238"/>
<path d="M223.243 43.1492C223.269 42.9999 223.31 42.8537 223.365 42.7126C223.443 42.4336 223.608 41.997 223.751 41.4961C224.211 39.9948 224.561 38.4616 224.796 36.909C225.614 31.7788 225.125 26.5253 223.373 21.6344C221.622 16.7435 218.666 12.3734 214.777 8.92833C213.612 7.88628 212.373 6.92964 211.07 6.06586C210.612 5.74383 210.233 5.52915 209.997 5.35024C209.866 5.27469 209.742 5.18853 209.625 5.09262C209.77 5.13592 209.907 5.20107 210.033 5.28584C210.283 5.42896 210.677 5.62218 211.149 5.92989C212.494 6.75735 213.767 7.69568 214.956 8.73511C218.927 12.171 221.942 16.5758 223.708 21.5214C225.473 26.4669 225.929 31.7851 225.032 36.9591C224.778 38.5095 224.398 40.0365 223.894 41.5247C223.722 42.0543 223.536 42.455 223.436 42.727C223.388 42.8746 223.323 43.0163 223.243 43.1492Z" fill="#263238"/>
<path d="M228.367 29.9961C228.31 29.9961 228.274 28.9299 228.059 27.2267C227.772 25.012 227.269 22.8309 226.556 20.7146C225.837 18.6071 224.909 16.5767 223.787 14.6533C222.914 13.172 222.284 12.3132 222.356 12.2774C222.548 12.4386 222.717 12.6266 222.857 12.8356C223.15 13.222 223.572 13.7874 224.03 14.5102C225.248 16.4132 226.233 18.4553 226.964 20.5929C227.701 22.7302 228.181 24.9475 228.395 27.1981C228.474 28.0568 228.496 28.7581 228.496 29.2447C228.492 29.5004 228.449 29.754 228.367 29.9961Z" fill="#263238"/>
<path d="M167.919 16.6498C167.876 16.7926 167.816 16.9296 167.74 17.0577C167.611 17.3225 167.389 17.6946 167.16 18.2027C164.465 23.5565 163.378 29.5759 164.029 35.5341C164.681 41.4923 167.043 47.1346 170.831 51.7795C171.817 52.9989 172.889 54.1468 174.037 55.2145C174.438 55.6009 174.753 55.8728 174.989 56.0732C175.104 56.1701 175.212 56.2753 175.311 56.3881C175.177 56.318 175.052 56.2315 174.939 56.1305C174.71 55.9516 174.359 55.6939 173.944 55.3218C172.749 54.2887 171.641 53.159 170.631 51.9441C167.254 47.9216 164.976 43.0931 164.019 37.9288C163.062 32.7645 163.459 27.4404 165.171 22.475C165.675 20.9792 166.305 19.5286 167.053 18.1383C167.303 17.6374 167.546 17.2724 167.69 17.022C167.755 16.8918 167.832 16.7673 167.919 16.6498Z" fill="#263238"/>
<path d="M160.77 28.8225C160.834 28.8225 160.698 29.8888 160.641 31.6063C160.565 33.8366 160.716 36.0689 161.092 38.2687C161.475 40.4706 162.079 42.6284 162.895 44.7092C163.518 46.305 164.004 47.2568 163.947 47.2854C163.786 47.0917 163.651 46.8776 163.546 46.6485C163.31 46.2263 162.995 45.6037 162.652 44.8094C161.753 42.7472 161.105 40.585 160.719 38.3688C160.34 36.1432 160.224 33.8805 160.376 31.6277C160.44 30.7618 160.526 30.0677 160.605 29.5882C160.625 29.3267 160.68 29.0691 160.77 28.8225Z" fill="#263238"/>
<path d="M216.731 36.5154C215.722 36.3079 214.906 36.129 214.906 36.1218C214.906 36.1147 215.729 36.2721 216.738 36.4796C217.747 36.6872 218.563 36.8589 218.556 36.8661C218.549 36.8732 217.733 36.7516 216.731 36.5154Z" fill="#263238"/>
<path d="M214.14 43.278C213.253 42.7556 212.537 42.3262 212.537 42.3191C212.537 42.3119 213.253 42.727 214.155 43.2494C215.056 43.7718 215.758 44.2011 215.75 44.2083C215.743 44.2154 215.021 43.8004 214.14 43.278Z" fill="#263238"/>
<path d="M209.475 48.8025C208.802 48.0154 208.265 47.3713 208.272 47.3713C208.279 47.3713 208.83 47.9939 209.496 48.8025C210.161 49.6112 210.705 50.2338 210.691 50.2338C210.677 50.2338 210.19 49.5826 209.475 48.8025Z" fill="#263238"/>
<path d="M203.313 52.5238C202.934 51.5648 202.633 50.7848 202.64 50.7848C202.648 50.7848 202.962 51.5505 203.356 52.5095C203.75 53.4684 204.036 54.2413 204.021 54.2484C204.007 54.2556 203.692 53.4755 203.313 52.5238Z" fill="#263238"/>
<path d="M196.257 54.0337C196.214 53.0032 196.185 52.1731 196.193 52.1731C196.2 52.1731 196.25 53.0032 196.293 54.0337C196.336 55.0642 196.372 55.8943 196.364 55.8943C196.357 55.8943 196.307 55.0642 196.257 54.0337Z" fill="#263238"/>
<path d="M189.094 53.1678C189.38 52.1803 189.616 51.3859 189.63 51.3859C189.645 51.3859 189.416 52.1946 189.13 53.1821C188.843 54.1697 188.6 54.964 188.586 54.964C188.571 54.964 188.8 54.1554 189.094 53.1678Z" fill="#263238"/>
<path d="M182.589 50.0334C183.183 49.189 183.669 48.5163 183.684 48.5235C183.698 48.5306 183.211 49.2391 182.617 50.0549C182.023 50.8707 181.565 51.5434 181.565 51.5434C181.565 51.5434 181.995 50.8707 182.589 50.0334Z" fill="#263238"/>
<path d="M177.472 44.9525C178.302 44.3442 178.982 43.8648 178.989 43.8719C178.996 43.8791 178.324 44.3729 177.486 44.9811C176.649 45.5894 175.976 46.0617 175.969 46.0546C175.962 46.0474 176.635 45.5536 177.472 44.9525Z" fill="#263238"/>
<path d="M174.266 38.4833C175.254 38.1828 176.055 37.9466 176.055 37.9538C176.055 37.9609 175.261 38.2186 174.273 38.5191C173.286 38.8197 172.491 39.0487 172.491 39.0415C172.491 39.0344 173.286 38.7839 174.266 38.4833Z" fill="#263238"/>
<path d="M173.343 31.3272C174.373 31.3272 175.204 31.3987 175.204 31.4131C175.204 31.4274 174.366 31.4131 173.343 31.363C172.32 31.3129 171.475 31.2842 171.482 31.2771C171.49 31.2699 172.312 31.2842 173.343 31.3272Z" fill="#263238"/>
<path d="M174.789 24.2497C175.755 24.6218 176.527 24.9224 176.527 24.9653C176.527 25.0083 175.74 24.6791 174.774 24.3141C173.808 23.9491 173.042 23.6414 173.042 23.6343C173.042 23.6271 173.83 23.8847 174.789 24.2497Z" fill="#263238"/>
<path d="M178.46 18.031C179.247 18.6965 179.891 19.2404 179.891 19.2475C179.891 19.2547 179.24 18.7251 178.46 18.0596C177.68 17.3941 177.028 16.8574 177.028 16.8502C177.028 16.8431 177.665 17.3726 178.46 18.031Z" fill="#263238"/>
<path d="M183.941 13.3508C184.471 14.2311 184.9 14.9467 184.893 14.9538C184.886 14.961 184.442 14.2382 183.913 13.3652C183.383 12.4921 182.954 11.7693 182.961 11.7622C182.968 11.755 183.412 12.4706 183.941 13.3508Z" fill="#263238"/>
<path d="M190.647 10.6887C190.861 11.6978 191.033 12.5136 191.026 12.5136C191.019 12.5136 190.833 11.7049 190.611 10.6959C190.389 9.68688 190.224 8.87824 190.239 8.87108C190.253 8.86392 190.432 9.68688 190.647 10.6887Z" fill="#263238"/>
<path d="M197.853 10.3596C197.731 11.3829 197.624 12.2058 197.617 12.2058C197.61 12.2058 197.695 11.3757 197.824 10.3524C197.953 9.32906 198.053 8.5061 198.06 8.5061C198.068 8.5061 197.982 9.32191 197.853 10.3596Z" fill="#263238"/>
<path d="M204.787 12.3848C204.344 13.3079 203.971 14.0593 203.964 14.0522C203.957 14.045 204.308 13.2936 204.751 12.3633C205.195 11.433 205.567 10.6888 205.582 10.6959C205.596 10.7031 205.231 11.4688 204.787 12.3848Z" fill="#263238"/>
<path d="M210.677 16.5497C209.961 17.2653 209.36 17.8664 209.353 17.8592C209.346 17.8521 209.932 17.251 210.655 16.521C211.378 15.7911 211.972 15.2043 211.979 15.2115C211.986 15.2186 211.407 15.8197 210.677 16.5497Z" fill="#263238"/>
<path d="M214.899 22.3963C213.976 22.8543 213.224 23.2192 213.224 23.2121C213.224 23.2049 213.94 22.8256 214.885 22.3676C215.829 21.9096 216.559 21.5447 216.559 21.5518C216.559 21.559 215.822 21.9383 214.899 22.3963Z" fill="#263238"/>
<path d="M217.003 29.302L215.149 29.5238C215.149 29.5238 215.972 29.395 216.996 29.2662C218.019 29.1374 218.842 29.03 218.842 29.0372C218.842 29.0444 218.019 29.166 217.003 29.302Z" fill="#263238"/>
<path d="M230.227 26.8331C229.83 28.0414 229.318 29.2085 228.696 30.3182L228.653 30.3969L228.51 30.6903L228.331 30.4183C227.611 29.4134 226.993 28.3395 226.485 27.2124C227.31 28.1359 228.044 29.1377 228.675 30.2037H228.352L228.395 30.1178C228.898 28.9662 229.512 27.8661 230.227 26.8331Z" fill="#263238"/>
<path d="M242.393 87.267H158.286C156.311 87.267 154.416 88.0519 153.019 89.4489C151.622 90.846 150.837 92.7408 150.837 94.7166C150.837 96.6923 151.622 98.5872 153.019 99.9842C154.416 101.381 156.311 102.166 158.286 102.166H197.645L206.455 110.56V102.166H242.393C243.371 102.166 244.34 101.973 245.244 101.599C246.148 101.225 246.969 100.676 247.661 99.9842C248.352 99.2925 248.901 98.4712 249.275 97.5674C249.65 96.6636 249.843 95.6949 249.843 94.7166C249.843 93.7383 249.65 92.7696 249.275 91.8658C248.901 90.9619 248.352 90.1407 247.661 89.4489C246.969 88.7572 246.148 88.2084 245.244 87.8341C244.34 87.4597 243.371 87.267 242.393 87.267Z" fill="#FAFAFA"/>
<path d="M242.393 87.267H242.665C242.938 87.2698 243.211 87.2913 243.481 87.3314C244.543 87.4739 245.562 87.8476 246.465 88.4263C247.328 88.976 248.07 89.6967 248.644 90.544C249.219 91.3912 249.614 92.347 249.805 93.3526C249.996 94.3582 249.979 95.3923 249.755 96.3911C249.532 97.39 249.106 98.3325 248.504 99.1606C247.691 100.293 246.582 101.179 245.298 101.722C244.61 102.001 243.888 102.186 243.151 102.274C242.386 102.331 241.627 102.309 240.84 102.316H230.707H206.44L206.605 102.152C206.605 104.785 206.605 107.633 206.605 110.546V110.94L206.319 110.668L197.502 102.274L197.624 102.324H164.176H158.336C156.387 102.344 154.504 101.617 153.074 100.293C151.643 98.968 150.774 97.146 150.645 95.2008C150.516 93.2556 151.137 91.3348 152.379 89.8328C153.622 88.3307 155.393 87.3614 157.327 87.1239C158.258 87.0237 159.152 87.0738 160.054 87.0595H173.15L209.188 87.1024L233.519 87.1597L240.124 87.1954H241.842C242.228 87.1954 242.429 87.1954 242.429 87.1954H241.842H240.124L233.519 87.2312L209.188 87.2956H173.15H160.054C159.159 87.2956 158.243 87.2956 157.378 87.36C155.585 87.5828 153.941 88.4687 152.769 89.8432C151.866 90.9024 151.287 92.1984 151.099 93.5772C150.911 94.9561 151.122 96.3599 151.709 97.622C152.295 98.8842 153.231 99.9515 154.406 100.697C155.581 101.443 156.945 101.836 158.336 101.83H164.176H197.624H197.695L197.746 101.873L206.555 110.274L206.269 110.396C206.269 107.483 206.269 104.635 206.269 102.002V101.844H206.426H230.693H240.826C241.606 101.844 242.379 101.844 243.116 101.844C243.835 101.764 244.54 101.589 245.212 101.322C246.696 100.697 247.935 99.6059 248.742 98.213C249.549 96.8202 249.879 95.2021 249.682 93.6046C249.485 92.0071 248.772 90.5175 247.652 89.362C246.531 88.2065 245.064 87.4483 243.474 87.2026C242.765 87.2742 242.393 87.3243 242.393 87.267Z" fill="#263238"/>
<path d="M195.069 99.9835H158.236C157.544 99.9845 156.859 99.8489 156.22 99.5845C155.58 99.3202 154.999 98.9322 154.51 98.443C154.021 97.9537 153.633 97.3727 153.368 96.7333C153.104 96.0938 152.968 95.4085 152.969 94.7166C152.973 93.3228 153.53 91.9876 154.517 91.0041C155.505 90.0206 156.843 89.4692 158.236 89.4711H195.069C195.76 89.4702 196.445 89.6055 197.084 89.8694C197.723 90.1333 198.304 90.5206 198.793 91.0091C199.282 91.4976 199.67 92.0778 199.935 92.7164C200.2 93.355 200.336 94.0396 200.336 94.7309C200.335 95.4216 200.198 96.1054 199.933 96.7432C199.668 97.381 199.28 97.9603 198.79 98.448C198.301 98.9358 197.721 99.3224 197.083 99.5859C196.444 99.8493 195.76 99.9845 195.069 99.9835Z" fill="#FED36A"/>
<path d="M198.153 79.5884L196.908 83.3955H195.964L195.126 80.8193L194.26 83.3955H193.323L192.071 79.5884H193.015L193.874 82.2648L194.769 79.5884H195.584L196.457 82.2863L197.338 79.5884H198.153Z" fill="#263238"/>
<path d="M198.361 81.492C198.338 81.076 198.44 80.6627 198.655 80.3055C198.869 79.9483 199.186 79.6637 199.564 79.4884C199.942 79.3131 200.364 79.2551 200.775 79.3221C201.186 79.389 201.568 79.5778 201.871 79.8639C202.173 80.1501 202.383 80.5205 202.473 80.9272C202.564 81.334 202.53 81.7584 202.376 82.1457C202.222 82.5329 201.956 82.8651 201.611 83.0994C201.267 83.3337 200.86 83.4593 200.443 83.4599C200.176 83.4755 199.907 83.4362 199.655 83.3443C199.403 83.2524 199.172 83.1099 198.977 82.9256C198.782 82.7413 198.627 82.519 198.521 82.2725C198.415 82.0259 198.361 81.7603 198.361 81.492ZM201.631 81.492C201.626 81.2583 201.551 81.0315 201.417 80.84C201.283 80.6484 201.096 80.5006 200.879 80.4151C200.661 80.3295 200.423 80.3101 200.195 80.3591C199.966 80.4081 199.757 80.5234 199.594 80.6906C199.431 80.8579 199.32 81.0695 199.277 81.2992C199.233 81.5288 199.258 81.7661 199.349 81.9815C199.44 82.1969 199.592 82.3808 199.787 82.5101C199.981 82.6394 200.21 82.7084 200.443 82.7085C200.601 82.7087 200.756 82.6769 200.901 82.6151C201.045 82.5533 201.176 82.4628 201.284 82.349C201.393 82.2352 201.477 82.1005 201.531 81.9532C201.586 81.8059 201.61 81.649 201.603 81.492H201.631Z" fill="#263238"/>
<path d="M205.617 83.3955L204.902 82.3364H204.093V83.3955H203.213V79.5884H204.859C205.875 79.5884 206.512 80.118 206.512 80.9695C206.523 81.2271 206.453 81.4818 206.312 81.6975C206.171 81.9132 205.965 82.0791 205.725 82.1718L206.583 83.3955H205.617ZM204.787 80.304H204.072V81.6351H204.787C205.324 81.6351 205.596 81.3846 205.596 80.9695C205.596 80.5545 205.324 80.304 204.787 80.304Z" fill="#263238"/>
<path d="M208.573 81.8999L208.058 82.4294V83.3955H207.185V79.5884H208.043V81.3631L209.732 79.5884H210.713L209.131 81.2844L210.806 83.3955H209.775L208.573 81.8999Z" fill="#263238"/>
<path d="M232.746 96.112H231.659L231.394 97.486H230.621L230.9 96.112H227.809L227.909 95.561L231.444 91.9185H232.374L228.989 95.4322H231.086L231.329 94.2228H232.045L231.802 95.4322H232.861L232.746 96.112Z" fill="#263238"/>
<path d="M235.036 92.6127L234.578 94.1369H235.115C236.546 94.1369 237.183 94.7237 237.183 95.6254C237.183 96.7776 236.239 97.5433 234.815 97.5433C234.458 97.5641 234.102 97.5112 233.767 97.3881C233.432 97.265 233.126 97.0742 232.868 96.8277L233.29 96.2122C233.497 96.4188 233.744 96.5797 234.016 96.6845C234.289 96.7893 234.58 96.8356 234.872 96.8205C235.831 96.8205 236.389 96.3983 236.389 95.6898C236.389 95.1388 235.995 94.8096 234.958 94.8096H233.612L234.478 91.897H237.613L237.484 92.6127H235.036Z" fill="#263238"/>
<path d="M238.099 93.6932C238.076 93.473 238.097 93.2503 238.161 93.0384C238.226 92.8265 238.332 92.6298 238.475 92.4601C238.617 92.2904 238.792 92.1511 238.989 92.0507C239.187 91.9502 239.403 91.8907 239.623 91.8756C239.78 91.8693 239.936 91.897 240.08 91.9569C240.225 92.0167 240.355 92.1073 240.461 92.2223C240.567 92.3374 240.647 92.4741 240.695 92.623C240.743 92.772 240.759 92.9296 240.74 93.085C240.765 93.3048 240.744 93.5274 240.681 93.7393C240.617 93.9511 240.511 94.1479 240.369 94.3178C240.228 94.4876 240.053 94.627 239.856 94.7275C239.659 94.828 239.443 94.8876 239.223 94.9026C239.066 94.9088 238.91 94.881 238.765 94.8212C238.62 94.7614 238.49 94.6709 238.383 94.5561C238.276 94.4412 238.196 94.3046 238.147 94.1557C238.098 94.0068 238.082 93.849 238.099 93.6932ZM243.037 91.9185H243.674L238.815 97.486H238.164L243.037 91.9185ZM240.246 93.1279C240.246 92.5983 240.003 92.3264 239.602 92.3264C238.958 92.3264 238.643 93.042 238.643 93.6503C238.643 94.2586 238.886 94.4518 239.287 94.4518C239.924 94.4804 240.246 93.7648 240.246 93.1279ZM241.126 96.3196C241.102 96.0995 241.122 95.8768 241.186 95.6649C241.25 95.4529 241.357 95.2563 241.5 95.0869C241.642 94.9176 241.818 94.779 242.016 94.6796C242.214 94.5803 242.43 94.5222 242.651 94.509C242.807 94.5026 242.962 94.5302 243.107 94.5902C243.251 94.6501 243.381 94.7408 243.486 94.856C243.592 94.9712 243.671 95.108 243.718 95.257C243.766 95.4059 243.78 95.5634 243.76 95.7184C243.784 95.9379 243.764 96.1601 243.701 96.3716C243.637 96.583 243.531 96.7793 243.389 96.9486C243.247 97.1179 243.072 97.2566 242.875 97.3564C242.678 97.4561 242.463 97.5148 242.243 97.5289C242.085 97.5376 241.928 97.5115 241.782 97.4525C241.636 97.3936 241.505 97.3032 241.397 97.1877C241.29 97.0723 241.21 96.9347 241.161 96.7846C241.113 96.6346 241.099 96.4758 241.119 96.3196H241.126ZM243.273 95.7542C243.273 95.2318 243.023 94.9527 242.629 94.9527C241.992 94.9527 241.663 95.6684 241.663 96.2838C241.663 96.8992 241.921 97.0853 242.307 97.0853C242.915 97.0853 243.237 96.3625 243.237 95.7542H243.273Z" fill="#263238"/>
<g opacity="0.3">
<path d="M159.66 89.4568L156.247 99.9835H159.66L162.866 89.4568H159.66Z" fill="white"/>
</g>
<g opacity="0.3">
<path d="M168.09 89.4568L164.677 99.9835H168.09L171.296 89.4568H168.09Z" fill="white"/>
</g>
<g opacity="0.3">
<path d="M176.513 89.4568L173.107 99.9835H176.513L179.726 89.4568H176.513Z" fill="white"/>
</g>
<g opacity="0.3">
<path d="M184.943 89.4568L181.537 99.9835H184.943L188.156 89.4568H184.943Z" fill="white"/>
</g>
<g opacity="0.3">
<path d="M193.373 89.4568L189.96 99.9835H193.373L196.586 89.4568H193.373Z" fill="white"/>
</g>
<path d="M65.6354 238.448C65.6354 238.448 83.762 246.614 102.64 246.614C120.115 246.614 138.614 237.819 138.614 237.819L65.6354 238.448Z" fill="#3A3E47"/>
<path d="M104.608 238.606H97.1225V317.016H104.608V238.606Z" fill="#3A3E47"/>
<path d="M134.077 312.415H67.6391V317.009H134.077V312.415Z" fill="#3A3E47"/>
<path d="M75.7685 318.519C75.7713 319.523 75.476 320.506 74.9199 321.342C74.3638 322.179 73.572 322.831 72.6447 323.217C71.7174 323.603 70.6965 323.705 69.7111 323.511C68.7258 323.316 67.8204 322.833 67.1097 322.123C66.3989 321.414 65.9149 320.509 65.7187 319.524C65.5226 318.539 65.6233 317.518 66.008 316.59C66.3927 315.662 67.0441 314.869 67.8797 314.312C68.7153 313.755 69.6975 313.458 70.7019 313.459C72.0439 313.461 73.3304 313.995 74.2799 314.943C75.2295 315.891 75.7647 317.177 75.7685 318.519Z" fill="#263238"/>
<path d="M105.295 318.519C105.295 319.522 104.997 320.503 104.44 321.338C103.882 322.172 103.09 322.822 102.163 323.206C101.236 323.59 100.216 323.691 99.2313 323.495C98.2471 323.299 97.3431 322.816 96.6335 322.107C95.9239 321.397 95.4407 320.493 95.2449 319.509C95.0491 318.524 95.1496 317.504 95.5336 316.577C95.9177 315.65 96.568 314.858 97.4023 314.3C98.2367 313.743 99.2177 313.445 100.221 313.445C101.567 313.445 102.857 313.98 103.809 314.931C104.76 315.883 105.295 317.173 105.295 318.519Z" fill="#263238"/>
<path d="M139.494 318.519C139.494 319.522 139.197 320.503 138.639 321.338C138.082 322.172 137.289 322.822 136.362 323.206C135.435 323.59 134.415 323.691 133.431 323.495C132.446 323.299 131.542 322.816 130.833 322.107C130.123 321.397 129.64 320.493 129.444 319.509C129.249 318.524 129.349 317.504 129.733 316.577C130.117 315.65 130.767 314.858 131.602 314.3C132.436 313.743 133.417 313.445 134.421 313.445C135.766 313.445 137.057 313.98 138.008 314.931C138.96 315.883 139.494 317.173 139.494 318.519Z" fill="#263238"/>
<path d="M102.633 266.823H92.4495V271.038H102.633V266.823Z" fill="#3A3E47"/>
<path d="M94.303 263.874H90.5961V273.986H94.303V263.874Z" fill="#3A3E47"/>
<path d="M63.8606 119.105H94.2601V228.473H55.5595V127.399C55.5633 125.199 56.4393 123.091 57.9954 121.536C59.5516 119.981 61.6608 119.107 63.8606 119.105Z" fill="#455A64"/>
<path d="M64.1182 226.812C64.0181 226.812 63.9322 203.083 63.9322 173.814C63.9322 144.545 64.0181 120.808 64.1182 120.808C64.2184 120.808 64.3043 144.538 64.3043 173.814C64.3043 203.09 64.2041 226.812 64.1182 226.812Z" fill="#263238"/>
<path d="M55.5595 228.251H151.316V240.144H61.2486C59.7303 240.144 58.2741 239.541 57.2005 238.468C56.1268 237.394 55.5237 235.938 55.5237 234.419V228.222L55.5595 228.251Z" fill="#455A64"/>
<path d="M109.76 75.8744L105.61 115.441C104.894 122.175 105.245 132.201 115.936 132.83C125.239 132.68 128.502 124.171 129.154 117.895C129.468 114.911 129.726 112.428 129.783 112.128C129.783 112.128 139.952 112.235 141.727 102.338C142.586 97.5576 143.545 87.5676 144.31 78.5221C144.707 73.8346 143.323 69.1698 140.434 65.4566C137.546 61.7434 133.365 59.2543 128.724 58.4849L127.765 58.3203C117.353 57.1896 110.583 65.412 109.76 75.8744Z" fill="#FFBE9D"/>
<path d="M129.783 112.106C125.205 111.332 120.946 109.261 117.51 106.138C117.51 106.138 119.45 113.902 129.49 114.661L129.783 112.106Z" fill="#EB996E"/>
<path d="M126.885 81.0125C126.67 81.1914 125.604 80.1609 123.937 79.9605C122.269 79.7602 120.945 80.4686 120.788 80.2396C120.709 80.1323 120.953 79.7816 121.504 79.4524C122.281 79.0266 123.173 78.8587 124.051 78.973C124.921 79.0822 125.733 79.4657 126.37 80.0679C126.864 80.533 126.992 80.9266 126.885 81.0125Z" fill="#263238"/>
<path d="M126.72 84.8411C126.666 85.191 126.476 85.5056 126.193 85.7181C125.91 85.9306 125.555 86.0242 125.203 85.9789C125.031 85.9637 124.864 85.9144 124.711 85.834C124.559 85.7536 124.423 85.6436 124.313 85.5104C124.204 85.3772 124.121 85.2235 124.071 85.0582C124.021 84.893 124.005 84.7194 124.023 84.5477C124.079 84.1986 124.269 83.885 124.552 83.6728C124.835 83.4607 125.189 83.3664 125.54 83.4098C125.712 83.425 125.879 83.4743 126.032 83.5547C126.184 83.6352 126.32 83.7452 126.43 83.8784C126.539 84.0115 126.622 84.1652 126.672 84.3305C126.722 84.4958 126.738 84.6693 126.72 84.8411Z" fill="#263238"/>
<path d="M129.998 93.0492C130.843 92.933 131.698 92.9209 132.546 93.0134C132.939 93.0134 133.326 93.0134 133.433 92.7701C133.531 92.3713 133.506 91.9523 133.361 91.5679L132.71 88.4191C131.809 83.9322 131.229 80.2754 131.415 80.2396C131.601 80.2039 132.467 83.8177 133.361 88.2903C133.576 89.3995 133.776 90.4372 133.97 91.4605C134.136 91.9709 134.115 92.5237 133.912 93.0206C133.836 93.1464 133.732 93.2531 133.608 93.3325C133.484 93.4118 133.343 93.4618 133.197 93.4786C132.971 93.508 132.743 93.508 132.517 93.4786C131.663 93.4392 130.817 93.295 129.998 93.0492Z" fill="#263238"/>
<path d="M126.756 74.665C126.556 75.0228 125.246 74.6149 123.636 74.5505C122.026 74.4861 120.681 74.7151 120.523 74.343C120.459 74.164 120.738 73.8492 121.318 73.5701C122.07 73.2241 122.896 73.0716 123.722 73.1264C124.549 73.1699 125.352 73.4156 126.062 73.842C126.599 74.1497 126.842 74.4932 126.756 74.665Z" fill="#263238"/>
<path d="M142.335 79.2234C142.135 79.5097 140.861 79.0517 139.287 78.8585C137.712 78.6653 136.381 78.744 136.238 78.4148C136.181 78.2574 136.467 78.0141 137.04 77.8208C137.81 77.5955 138.62 77.5369 139.416 77.6491C140.218 77.7521 140.99 78.0201 141.684 78.4363C142.206 78.7726 142.428 79.0875 142.335 79.2234Z" fill="#263238"/>
<path d="M109.345 83.3311C109.188 83.2238 102.869 80.1824 101.96 86.9951C101.051 93.8078 108.079 93.314 108.114 93.1208C108.15 92.9276 109.345 83.3311 109.345 83.3311Z" fill="#FFBE9D"/>
<path d="M106.383 90.2655C106.383 90.2655 106.247 90.3299 106.039 90.3943C105.739 90.4772 105.419 90.4413 105.145 90.2941C104.429 89.9363 104.007 88.7126 104.143 87.4817C104.202 86.8934 104.393 86.3259 104.701 85.8215C104.793 85.617 104.933 85.4382 105.111 85.301C105.288 85.1637 105.496 85.0721 105.717 85.0343C105.857 85.016 105.999 85.0475 106.118 85.1234C106.237 85.1993 106.326 85.3147 106.368 85.4493C106.44 85.6497 106.368 85.7857 106.411 85.8C106.454 85.8143 106.576 85.707 106.554 85.4136C106.543 85.2408 106.469 85.0781 106.347 84.9556C106.177 84.7877 105.949 84.6927 105.71 84.6908C105.423 84.7104 105.145 84.8028 104.904 84.9593C104.662 85.1158 104.464 85.3313 104.329 85.5853C103.959 86.1343 103.73 86.766 103.663 87.4244C103.527 88.8056 104.057 90.1867 105.001 90.6018C105.177 90.6794 105.368 90.7165 105.56 90.7103C105.752 90.7041 105.94 90.6548 106.111 90.566C106.347 90.43 106.426 90.2798 106.383 90.2655Z" fill="#EB996E"/>
<path d="M127.944 97.6077C128.037 97.4431 126.735 96.8921 125.905 95.5682C125.565 94.9817 125.303 94.354 125.125 93.7004C124.974 93.1852 124.853 92.856 124.774 92.8703C124.695 92.8846 124.688 93.2281 124.774 93.7791C124.859 94.5169 125.103 95.2274 125.49 95.8616C125.883 96.5004 126.445 97.0181 127.114 97.3572C127.572 97.6148 127.894 97.6649 127.944 97.6077Z" fill="#263238"/>
<path d="M101.273 71.4161C102.926 69.1332 103.52 66.2851 104.551 63.6659C105.581 61.0468 107.334 58.399 110.061 57.6977L110.118 57.7335C112.573 57.0178 115.492 57.254 117.274 59.0788C118.083 55.5651 121.461 53.039 125.017 52.4522C128.574 51.8654 134.084 52.9173 137.29 54.599C139.766 55.8728 142.056 58.2201 144.79 61.6193C145.949 63.0482 146.988 64.5705 147.896 66.1706L150.042 75.767L147.008 80.4114C146.824 80.7362 146.623 81.0515 146.407 81.356L143.13 91.439C143.237 88.6195 144.346 78.8728 144.453 76.0461C142.348 75.7885 140.316 75.108 138.48 74.0455C136.644 72.983 135.042 71.5604 133.769 69.8632C132.395 68.024 131.386 65.7842 129.426 64.5819C126.907 63.029 123.701 63.6874 120.788 64.403L120.917 64.3028C119.4 64.8426 118 65.6686 116.795 66.7359C116.907 72.3352 115.811 77.8928 113.582 83.0305C113.245 83.8034 112.387 85.3778 111.571 85.6139C109.982 86.0648 109.71 84.4618 108.866 83.5458C108.243 82.8731 107.241 82.6942 106.132 82.6012C105.584 80.2036 105.178 77.7758 104.916 75.3305C103.968 75.5257 102.988 75.4988 102.053 75.2518L103.134 73.2194C102.742 73.4553 102.306 73.6065 101.853 73.6631C101.616 73.6928 101.376 73.6454 101.169 73.5282C100.961 73.4109 100.797 73.2298 100.701 73.0119C100.522 72.4609 100.93 71.8955 101.273 71.4161Z" fill="#263238"/>
<path d="M120.323 60.51C119.941 60.7585 119.578 61.0335 119.235 61.333C118.36 62.213 117.729 63.3055 117.403 64.5032C117.154 65.3217 116.989 66.1632 116.909 67.015C116.823 67.9382 116.809 68.9257 116.781 69.9705C116.773 71.0667 116.696 72.1614 116.552 73.248C116.466 73.8241 116.339 74.3933 116.172 74.9512C116.027 75.5521 115.732 76.1062 115.314 76.5613C115.124 76.736 114.893 76.8592 114.643 76.9193C114.392 76.9794 114.13 76.9744 113.882 76.9048C113.4 76.7698 112.977 76.4776 112.68 76.0747C112.211 75.2791 111.964 74.3721 111.964 73.4484L112.165 73.4913C111.786 74.2179 111.304 74.8857 110.734 75.4736C110.192 76.0165 109.461 76.3293 108.694 76.3467C108.339 76.3493 107.99 76.2553 107.685 76.0747C107.403 75.8931 107.181 75.6315 107.048 75.3233C106.925 75.0373 106.88 74.7235 106.919 74.4145C106.965 74.1379 107.104 73.8853 107.313 73.6989L107.406 73.8062C106.582 74.6074 105.551 75.1626 104.429 75.4092C104.35 75.4338 104.268 75.4459 104.186 75.445C104.26 75.4145 104.336 75.3906 104.415 75.3734C104.572 75.3233 104.801 75.2589 105.087 75.1444C105.915 74.8201 106.669 74.3335 107.306 73.7132L107.406 73.8205C107.223 74.0146 107.105 74.2606 107.068 74.5246C107.03 74.7886 107.076 75.0577 107.198 75.2947C107.32 75.5698 107.522 75.8017 107.778 75.9602C108.055 76.1246 108.372 76.2088 108.694 76.2035C109.41 76.1754 110.088 75.876 110.59 75.3663C111.134 74.7882 111.592 74.1351 111.95 73.4269L112.122 73.1192V73.4699C112.137 74.3552 112.384 75.2211 112.838 75.9817C113.11 76.3286 113.486 76.5793 113.911 76.6973C114.125 76.7598 114.352 76.7656 114.569 76.7141C114.786 76.6627 114.986 76.5558 115.149 76.4039C115.534 75.9767 115.807 75.4602 115.943 74.9011C116.11 74.3529 116.237 73.7933 116.323 73.2266C116.467 72.1493 116.545 71.0644 116.559 69.9777C116.559 68.9329 116.616 67.9453 116.709 67.015C116.799 66.1501 116.976 65.2966 117.239 64.4674C117.587 63.2526 118.254 62.1531 119.171 61.2829C119.508 60.9621 119.898 60.7008 120.323 60.51Z" fill="#455A64"/>
<path d="M150.286 73.0692L150.2 73.1264L149.935 73.2838C149.793 73.3731 149.645 73.452 149.491 73.52C149.305 73.5987 149.098 73.7061 148.855 73.7848C147.459 74.264 145.967 74.3918 144.511 74.1569C142.344 73.8116 140.324 72.8473 138.693 71.3803C136.732 69.5699 135.161 67.3783 134.077 64.9397C133.462 63.6659 132.982 62.3707 132.438 61.1684C131.949 59.9982 131.291 58.906 130.485 57.9267C129.766 57.0367 128.833 56.3446 127.772 55.9158C127.293 55.7334 126.789 55.6272 126.277 55.6009C125.796 55.5821 125.314 55.6279 124.846 55.7369C123.429 56.0778 122.195 56.9419 121.389 58.1557C121.119 58.6069 120.901 59.087 120.738 59.5869C120.733 59.5537 120.733 59.52 120.738 59.4867C120.738 59.4009 120.781 59.3078 120.809 59.1862C120.924 58.8017 121.087 58.4337 121.296 58.0913C121.629 57.5464 122.053 57.0624 122.548 56.66C123.205 56.13 123.97 55.7491 124.788 55.5437C125.787 55.2861 126.84 55.3386 127.808 55.694C128.901 56.1317 129.866 56.8381 130.613 57.7478C131.434 58.7405 132.107 59.8469 132.61 61.0325C133.161 62.249 133.641 63.5371 134.249 64.8038C135.326 67.2113 136.873 69.3792 138.8 71.1799C140.404 72.6337 142.391 73.5973 144.525 73.9565C145.96 74.2047 147.433 74.1016 148.819 73.656C149.792 73.3626 150.271 73.0119 150.286 73.0692Z" fill="#455A64"/>
<path d="M142.056 83.0305C141.841 83.2166 140.775 82.1789 139.108 81.9857C137.44 81.7925 136.117 82.4867 135.966 82.2577C135.888 82.1503 136.124 81.8068 136.682 81.4705C137.46 81.0481 138.352 80.8827 139.229 80.9982C140.1 81.1004 140.913 81.4821 141.548 82.0859C142.035 82.5654 142.164 82.9661 142.056 83.0305Z" fill="#263238"/>
<path d="M140.639 86.1363C140.586 86.487 140.397 86.8028 140.114 87.0157C139.83 87.2285 139.474 87.3213 139.122 87.2741C138.95 87.259 138.783 87.2097 138.631 87.1292C138.479 87.0486 138.344 86.9385 138.235 86.8052C138.125 86.6719 138.044 86.5181 137.994 86.3529C137.945 86.1876 137.93 86.0143 137.949 85.8429C138.003 85.4944 138.192 85.1809 138.473 84.9686C138.755 84.7563 139.108 84.6618 139.458 84.7051C139.63 84.7203 139.798 84.7695 139.95 84.85C140.103 84.9304 140.238 85.0404 140.348 85.1736C140.458 85.3068 140.541 85.4605 140.59 85.6257C140.64 85.791 140.657 85.9646 140.639 86.1363Z" fill="#263238"/>
<path d="M147.216 64.9039C147.931 66.1133 149.141 67.2726 150.551 67.2726C151.067 67.2185 151.579 67.1252 152.082 66.9935C152.54 67.337 152.254 68.9973 151.867 69.4195C151.51 69.7768 151.122 70.1024 150.708 70.3927C152.254 71.4447 153.792 71.1656 155.603 70.7147C155.273 72.1852 154.563 73.5436 153.545 74.6547C152.527 75.7659 151.235 76.591 149.799 77.048C149.353 77.2303 148.87 77.304 148.39 77.2629C147.909 77.2219 147.446 77.0672 147.037 76.8118C146.442 76.1993 146.093 75.3893 146.056 74.5361C145.584 71.458 145.495 68.3332 145.792 65.2331L147.216 64.9039Z" fill="#263238"/>
<path d="M128.731 121.388C128.731 121.388 135.029 123.942 138.614 132.659C141.133 138.784 155.145 158.12 155.145 158.12L192.4 166.393L193.674 178.279L134.084 177.785L125.804 151.415L128.731 121.388Z" fill="#FED36A"/>
<path d="M103.642 110.403L97.0295 113.18C90.911 115.741 83.0821 121.645 80.4558 127.742C74.1512 142.427 68.4406 161.298 66.2508 177.993C64.0395 194.831 68.4406 219.749 68.4406 219.749L124.359 187.797L121.089 185.514L131.687 127.864L129.712 120.887L131.029 114.983C131.029 114.983 116.194 109.029 105.388 104.757L103.642 110.403Z" fill="#FED36A"/>
<g opacity="0.3">
<path d="M98.3033 203.09C98.5084 200.227 98.7136 197.348 98.9187 194.452C98.2629 195.077 97.4045 195.445 96.4999 195.49C97.8989 194.155 99.1402 192.664 100.2 191.046L97.6521 192.141C98.5506 191.45 99.2839 190.567 99.7989 189.557C98.4321 188.491 96.5071 188.67 94.7896 188.842C85.9517 189.736 77.0351 189.142 68.1615 188.548C67.2727 188.497 66.4057 188.253 65.621 187.833C65.621 187.833 65.4421 185.4 65.8357 184.491C66.2293 183.582 66.8447 183.847 67.775 183.51C68.7195 183.223 69.7005 183.074 70.6876 183.067C81.4863 182.494 92.3064 183.382 103.084 184.276C103.756 184.266 104.416 184.455 104.98 184.82C105.86 185.536 105.782 186.881 105.631 188.004C105.078 192.041 104.529 196.074 103.985 200.106" fill="black"/>
</g>
<path d="M131.029 125.545C131.028 125.728 131.011 125.91 130.978 126.089L130.749 127.628C130.549 128.959 130.227 130.891 129.805 133.267C128.96 138.026 127.694 144.574 126.227 151.787C124.76 159.001 123.271 165.52 122.205 170.229C121.668 172.554 121.232 174.451 120.917 175.803C120.767 176.433 120.645 176.934 120.552 177.313C120.519 177.493 120.466 177.668 120.394 177.836C120.413 177.655 120.442 177.476 120.48 177.299C120.552 176.912 120.652 176.404 120.781 175.775C121.06 174.408 121.496 172.511 121.947 170.171L125.826 151.73C127.329 144.516 128.638 137.976 129.547 133.231C129.984 130.891 130.349 128.98 130.606 127.614C130.728 126.984 130.828 126.476 130.9 126.089C130.924 125.904 130.967 125.722 131.029 125.545Z" fill="#263238"/>
<path d="M80.4558 207.391C80.5559 207.267 80.6686 207.154 80.7921 207.054L81.794 206.131C82.2234 205.73 82.7672 205.251 83.4185 204.7C84.0697 204.149 84.7853 203.533 85.6297 202.897C87.2828 201.573 89.3223 200.091 91.6481 198.538C93.9738 196.986 96.6574 195.411 99.4698 193.894C102.282 192.377 105.137 191.117 107.728 190.051C110.319 188.985 112.694 188.162 114.72 187.547C115.721 187.21 116.652 186.967 117.46 186.738C118.269 186.509 118.97 186.33 119.543 186.194L120.874 185.893C121.025 185.846 121.181 185.817 121.339 185.808C121.194 185.875 121.043 185.928 120.888 185.965L119.579 186.337C119.013 186.495 118.319 186.688 117.518 186.938C116.716 187.189 115.8 187.446 114.798 187.797C112.795 188.448 110.433 189.314 107.857 190.373C105.281 191.432 102.497 192.728 99.6487 194.223C96.8005 195.719 94.1742 197.308 91.8341 198.825C89.494 200.342 87.4545 201.816 85.7871 203.118C84.9356 203.741 84.2056 204.356 83.5473 204.872C82.8889 205.387 82.3379 205.859 81.887 206.238L80.8422 207.104C80.724 207.213 80.5945 207.309 80.4558 207.391Z" fill="#263238"/>
<path d="M109.159 186.287C109.209 186.38 103.771 189.436 96.9937 193.114C90.2168 196.792 84.7209 199.705 84.6708 199.612C84.6207 199.519 90.0594 196.47 96.8363 192.785C103.613 189.099 109.109 186.201 109.159 186.287Z" fill="#263238"/>
<g opacity="0.3">
<path d="M89.5084 142.119C92.9791 157.147 103.592 170.558 117.718 176.676C107.556 165.798 98.1314 154.254 89.5084 142.119Z" fill="black"/>
</g>
<g opacity="0.3">
<path d="M130.141 130.698C131.508 137.053 130.492 145.01 127.279 150.642L126.484 148.996C127.608 144.223 129.218 135.757 130.113 130.698" fill="black"/>
</g>
<path d="M159.868 282.337L153.163 302.503C153.163 302.503 171.418 316.1 170.538 319.943L130.964 308.35L140.117 276.491L159.868 282.337Z" fill="#455A64"/>
<g opacity="0.3">
<path d="M159.868 282.337L153.163 302.503C153.163 302.503 171.418 316.1 170.538 319.943L130.964 308.35L140.117 276.491L159.868 282.337Z" fill="black"/>
</g>
<path d="M141.426 297.208C141.012 297.211 140.614 297.368 140.308 297.649C140.003 297.929 139.812 298.312 139.773 298.725C139.761 299.139 139.909 299.542 140.186 299.85C140.463 300.158 140.849 300.347 141.262 300.378C141.702 300.373 142.124 300.204 142.446 299.905C142.769 299.607 142.969 299.199 143.008 298.761C142.975 298.328 142.775 297.925 142.451 297.636C142.126 297.348 141.703 297.197 141.269 297.215" fill="#E0E0E0"/>
<g opacity="0.6">
<path d="M130.964 308.35L132.009 305.173L169.565 317.474C169.565 317.474 171.103 318.755 170.538 319.943L130.964 308.35Z" fill="white"/>
</g>
<path d="M153.864 302.489C153.799 302.682 152.812 302.489 151.674 302.833C150.536 303.176 149.799 303.834 149.642 303.706C149.484 303.577 150.1 302.546 151.481 302.16C152.862 301.773 153.957 302.324 153.864 302.489Z" fill="#263238"/>
<path d="M157.514 305.423C157.514 305.623 156.569 305.709 155.674 306.332C154.78 306.954 154.336 307.763 154.143 307.699C153.95 307.634 154.143 306.511 155.281 305.752C156.419 304.994 157.564 305.237 157.514 305.423Z" fill="#263238"/>
<path d="M158.415 311.084C158.229 311.084 158.243 310.032 159.045 309.116C159.846 308.2 160.884 308.042 160.913 308.228C160.941 308.414 160.197 308.815 159.574 309.574C158.952 310.332 158.616 311.119 158.415 311.084Z" fill="#263238"/>
<path d="M154.88 297.716C154.751 297.873 153.943 297.344 152.826 297.1C151.71 296.857 150.758 296.95 150.679 296.75C150.601 296.549 151.645 296.106 152.955 296.413C154.265 296.721 155.023 297.601 154.88 297.716Z" fill="#263238"/>
<path d="M171.411 291.34L170.574 312.579C170.574 312.579 191.885 320.558 192.106 324.501L150.873 324.358L150.794 291.211L171.411 291.34Z" fill="#455A64"/>
<path d="M157.828 310.747C157.431 310.866 157.091 311.127 156.874 311.481C156.657 311.835 156.579 312.257 156.655 312.665C156.76 313.067 157.015 313.413 157.368 313.631C157.721 313.85 158.145 313.924 158.551 313.839C158.971 313.712 159.328 313.434 159.555 313.058C159.781 312.683 159.859 312.237 159.775 311.806C159.624 311.399 159.322 311.066 158.93 310.878C158.539 310.69 158.09 310.661 157.678 310.797" fill="#E0E0E0"/>
<g opacity="0.6">
<path d="M150.873 324.358L150.994 321.016L190.489 322.397C190.489 322.397 192.321 323.206 192.106 324.501L150.873 324.358Z" fill="white"/>
</g>
<path d="M171.246 312.372C171.246 312.572 170.23 312.658 169.235 313.302C168.241 313.946 167.711 314.79 167.525 314.733C167.339 314.676 167.647 313.488 168.863 312.73C170.08 311.971 171.289 312.186 171.246 312.372Z" fill="#263238"/>
<path d="M175.561 314.175C175.604 314.368 174.731 314.705 174.044 315.556C173.357 316.408 173.157 317.309 172.957 317.295C172.756 317.281 172.635 316.15 173.508 315.105C174.381 314.061 175.561 313.982 175.561 314.175Z" fill="#263238"/>
<path d="M177.987 319.356C177.801 319.399 177.529 318.39 178.045 317.295C178.56 316.2 179.512 315.757 179.597 315.921C179.683 316.086 179.097 316.68 178.681 317.589C178.266 318.497 178.202 319.342 177.987 319.356Z" fill="#263238"/>
<path d="M170.896 307.505C170.81 307.692 169.887 307.412 168.749 307.505C167.611 307.599 166.724 307.935 166.602 307.763C166.48 307.591 167.317 306.876 168.699 306.804C170.08 306.733 170.996 307.348 170.896 307.505Z" fill="#263238"/>
<path d="M122.012 187.332C122.012 187.332 171.439 200.213 177.579 208.736C182.76 215.971 155.553 289.844 155.553 289.844L134.084 287.991L143.344 226.176L87.9626 208.571L96.3282 187.303L122.012 187.332Z" fill="#263238"/>
<path d="M125.554 198.911C125.554 198.911 176.084 211.183 181.193 219.907C183.576 223.979 182.009 237.346 181.122 243.658C180.521 247.909 171.59 307.391 171.59 307.391H149.742L150.221 240.209L97.7236 229.625C97.7236 229.625 69.5426 231.772 68.4406 219.749L80.2053 203.805L107.971 190.087L125.554 198.911Z" fill="#263238"/>
<path d="M121.704 197.365C121.704 197.365 121.954 197.422 122.42 197.558L124.566 198.152L132.81 200.456C136.388 201.458 140.768 202.682 145.827 204.185C150.887 205.687 156.619 207.505 162.838 209.859C165.953 211.024 169.169 212.35 172.484 213.838L174.989 214.969C175.833 215.381 176.655 215.837 177.451 216.336C178.265 216.846 179.033 217.425 179.748 218.068C180.49 218.72 181.113 219.498 181.587 220.365C183.29 228.108 182.26 236.573 180.993 245.225C180.442 249.583 179.733 254.027 179.068 258.572C178.402 263.116 177.694 267.767 176.985 272.49C175.554 281.944 174.123 291.733 172.606 301.752C172.32 303.648 172.041 305.538 171.754 307.412V307.577H149.57V307.391C149.763 281.929 149.942 258.872 150.085 240.216L150.2 240.352L112.866 232.759L102.683 230.67L100.035 230.119C99.434 229.99 99.1334 229.911 99.1334 229.911L100.042 230.076L102.704 230.591L112.931 232.595L150.25 240.051H150.364V240.173C150.243 258.829 150.093 281.886 149.928 307.355L149.742 307.169H171.583L171.404 307.327C171.683 305.444 171.969 303.562 172.248 301.666L176.635 272.404C177.35 267.672 178.047 263.032 178.724 258.486C179.397 253.941 180.113 249.498 180.671 245.139C180.967 242.964 181.255 240.817 181.537 238.699C181.838 236.614 182.024 234.514 182.095 232.409C182.167 230.333 182.167 228.289 182.095 226.276C182.052 225.267 181.995 224.272 181.909 223.284C181.901 222.316 181.704 221.358 181.329 220.465C180.874 219.63 180.276 218.881 179.562 218.254C178.864 217.624 178.112 217.056 177.315 216.558C176.53 216.059 175.718 215.605 174.882 215.198L172.391 214.06C169.085 212.579 165.872 211.241 162.766 210.074C156.562 207.705 150.83 205.895 145.785 204.349C140.739 202.803 136.36 201.587 132.789 200.564L124.559 198.245L122.412 197.615C121.947 197.451 121.704 197.365 121.704 197.365Z" fill="#455A64"/>
<path d="M191.684 166.98C192.006 166.493 196.178 161.677 197.302 161.677C198.425 161.677 199.713 162.965 199.713 162.965C200.465 162.62 201.302 162.508 202.118 162.643C203.084 162.965 207.578 166.815 207.578 168.261V170.672C207.68 171.31 207.68 171.96 207.578 172.597C207.421 173.721 204.716 175.646 204.716 175.646H189.28C189.28 175.646 186.339 173.664 186.704 171.796C187.069 169.928 191.684 166.98 191.684 166.98Z" fill="#FFBE9D"/>
<path d="M199.713 162.965C200.048 163.118 200.369 163.3 200.672 163.509L203.22 165.119C203.514 165.29 203.797 165.481 204.064 165.692C204.349 165.954 204.563 166.284 204.687 166.65C204.785 167.039 204.83 167.438 204.823 167.838L204.887 169.069C204.973 170.751 205.059 172.597 205.152 174.529L205.195 175.402V175.56L205.045 175.596L204.1 175.825H204.057C203.616 175.811 203.191 175.653 202.848 175.374C202.532 175.112 202.268 174.794 202.068 174.436C201.705 173.785 201.433 173.086 201.259 172.361C200.959 171.149 200.782 169.909 200.73 168.661L200.816 168.776L198.118 167.717C197.784 167.599 197.46 167.453 197.152 167.28C197.498 167.351 197.838 167.451 198.168 167.581L200.901 168.533H200.98V168.618C201.063 169.846 201.262 171.063 201.574 172.254C201.75 172.945 202.017 173.609 202.368 174.229C202.523 174.556 202.758 174.837 203.053 175.047C203.347 175.256 203.691 175.386 204.05 175.424H204.007L204.952 175.188L204.809 175.381L204.766 174.501C204.687 172.569 204.601 170.729 204.53 169.041C204.53 168.618 204.53 168.211 204.487 167.81C204.494 167.437 204.458 167.065 204.379 166.701C204.28 166.381 204.1 166.093 203.857 165.863C203.603 165.658 203.338 165.467 203.063 165.291L200.579 163.588C200.274 163.405 199.984 163.197 199.713 162.965Z" fill="#EB996E"/>
<path d="M189.28 175.095C189.619 175.022 189.964 174.976 190.31 174.959L193.123 174.737H193.166C194.212 174.983 195.27 175.174 196.336 175.309C196.95 175.393 197.569 175.443 198.189 175.46C198.49 175.509 198.799 175.491 199.092 175.407C199.385 175.323 199.656 175.175 199.885 174.973C200.077 174.7 200.171 174.369 200.15 174.036C200.15 173.685 200.1 173.32 200.086 172.948C200.045 172.645 199.898 172.366 199.671 172.161C199.445 171.934 199.187 171.741 198.905 171.588C197.884 171.074 196.734 170.87 195.599 171.001C195.192 171.039 194.782 170.98 194.402 170.828C194.022 170.677 193.684 170.437 193.416 170.128C193.08 169.649 193.108 169.298 193.13 169.305C193.224 169.564 193.359 169.805 193.531 170.021C193.799 170.289 194.124 170.493 194.482 170.617C194.841 170.741 195.222 170.782 195.599 170.737C196.784 170.561 197.995 170.75 199.069 171.281C199.381 171.446 199.668 171.656 199.921 171.903C200.219 172.172 200.407 172.542 200.451 172.941C200.451 173.27 200.522 173.656 200.522 174.028C200.542 174.448 200.418 174.862 200.171 175.202C199.922 175.491 199.581 175.685 199.205 175.753C198.868 175.816 198.525 175.838 198.182 175.818C197.524 175.818 196.894 175.732 196.293 175.653C195.215 175.498 194.147 175.28 193.094 175.002H193.137L190.325 175.102C189.977 175.136 189.627 175.134 189.28 175.095Z" fill="#EB996E"/>
<path d="M204.988 175.03C205.345 174.073 205.761 173.139 206.233 172.232C206.596 171.27 207.076 170.357 207.664 169.513C207.418 170.506 207.055 171.467 206.583 172.375C206.219 173.351 205.678 174.251 204.988 175.03Z" fill="#EB996E"/>
<path d="M171.547 178.286L227.143 179.002L245.034 128.809C245.225 128.306 245.216 127.75 245.01 127.253C244.804 126.757 244.415 126.358 243.924 126.139C243.66 126.017 243.373 125.95 243.082 125.944C242.791 125.938 242.501 125.993 242.232 126.104C241.963 126.216 241.72 126.383 241.519 126.593C241.317 126.803 241.162 127.054 241.062 127.327L223.422 174.859L171.497 175.374C171.117 175.374 170.753 175.525 170.485 175.793C170.216 176.061 170.065 176.425 170.065 176.805C170.058 177.001 170.092 177.197 170.164 177.38C170.236 177.563 170.345 177.729 170.484 177.868C170.623 178.007 170.789 178.116 170.972 178.188C171.155 178.26 171.35 178.293 171.547 178.286Z" fill="#263238"/>
<path d="M88.6997 140.996C88.6997 140.996 115.893 177.964 120.108 177.964H159.789V162.936L129.783 155.859C129.783 155.859 115.013 125.302 111.735 121.388C108.458 117.473 99.7202 112.199 93.1866 118.096C86.653 123.993 88.6997 140.996 88.6997 140.996Z" fill="#FED36A"/>
<path d="M159.761 164.418L166.266 163.895C166.266 163.895 166.401 161.484 167.826 160.632C169.25 159.781 169.099 157.934 169.972 158.077C170.445 158.17 170.931 158.17 171.404 158.077L176.792 153.54L181.336 150.563L184.914 149.848C184.914 149.848 187.061 150.413 184.914 152.395L182.639 153.676L180.657 155.666L185.194 153.433C185.402 153.332 185.631 153.28 185.863 153.28C186.094 153.28 186.323 153.332 186.532 153.433C187.759 153.963 188.93 154.618 190.024 155.387C190.122 155.478 190.2 155.589 190.253 155.712C190.307 155.835 190.334 155.968 190.334 156.102C190.334 156.236 190.307 156.369 190.253 156.492C190.2 156.615 190.122 156.726 190.024 156.818L192.006 158.521C192.006 158.521 192.436 160.797 190.16 160.224L188.321 159.802L185.859 162.192C185.859 162.192 194.096 160.489 194.661 160.761C195.227 161.033 195.942 162.321 194.661 163.452C193.38 164.582 188.414 164.303 187.283 165.441C186.153 166.579 178.639 173.435 176.792 173.857C174.946 174.279 159.803 177.979 159.803 177.979L159.761 164.418Z" fill="#FFBE9D"/>
<path d="M191.949 158.5C191.56 158.262 191.187 157.999 190.833 157.712C190.496 157.462 190.117 157.169 189.63 156.854C189.401 156.696 189.163 156.539 188.915 156.381C188.692 156.216 188.431 156.11 188.156 156.074C187.592 156.195 187.056 156.421 186.575 156.739C186.088 157.004 185.659 157.254 185.294 157.455C184.919 157.718 184.516 157.939 184.092 158.113C184.392 157.766 184.747 157.471 185.143 157.24C185.494 156.997 185.916 156.718 186.403 156.431C186.646 156.288 186.904 156.145 187.176 156.002C187.471 155.831 187.802 155.728 188.142 155.702C188.241 155.682 188.343 155.682 188.442 155.702C188.526 155.729 188.607 155.763 188.686 155.802C188.831 155.872 188.972 155.951 189.108 156.038C189.373 156.202 189.616 156.367 189.824 156.539C190.274 156.868 190.668 157.19 190.99 157.469C191.641 158.056 191.992 158.464 191.949 158.5Z" fill="#EB996E"/>
<path d="M172.019 157.526C172.076 157.612 171.404 158.199 170.588 158.958C169.772 159.716 169.157 160.346 169.078 160.267C169.38 159.658 169.806 159.119 170.33 158.686C170.789 158.166 171.369 157.768 172.019 157.526Z" fill="#EB996E"/>
<path d="M111.735 121.388C112.319 122.106 112.845 122.87 113.31 123.67C114.247 125.223 115.571 127.542 117.16 130.54C120.359 136.537 124.76 145.232 129.919 155.816L129.819 155.73L159.832 162.786H159.975V178.208H157.993H124.266H120.43C120.263 178.218 120.096 178.218 119.929 178.208C119.76 178.175 119.597 178.119 119.443 178.043C119.143 177.885 118.858 177.701 118.591 177.492C118.092 177.12 117.614 176.721 117.16 176.297C115.422 174.661 113.771 172.933 112.215 171.123C109.166 167.66 106.49 164.318 104.021 161.255C99.1406 155.115 95.3263 150.041 92.7072 146.534L89.7087 142.47C89.3795 142.005 89.1291 141.654 88.943 141.403C88.757 141.153 88.6926 141.031 88.6926 141.031C88.6926 141.031 88.7927 141.146 88.9788 141.382L89.7731 142.427L92.8288 146.434C95.4838 149.919 99.3338 154.964 104.236 161.083C106.69 164.132 109.403 167.459 112.451 170.916C114.007 172.71 115.656 174.423 117.389 176.047C117.843 176.463 118.321 176.852 118.82 177.213C119.064 177.389 119.323 177.545 119.593 177.678C119.858 177.806 120.152 177.858 120.445 177.828H124.28H158.007H159.803L159.617 178.014C159.617 172.862 159.617 167.824 159.617 162.987L159.753 163.165L129.748 156.024H129.676L129.64 155.959C124.516 145.361 120.151 136.637 117.002 130.633C115.435 127.621 114.14 125.295 113.224 123.728C112.759 122.955 112.408 122.354 112.129 121.982C111.85 121.609 111.735 121.388 111.735 121.388Z" fill="#263238"/>
<path d="M107.785 118.969C107.785 119.033 106.855 118.661 105.338 118.318C104.447 118.12 103.543 117.984 102.633 117.91C101.52 117.824 100.403 117.824 99.2909 117.91C98.1817 118.026 97.0835 118.23 96.0062 118.518C95.1253 118.759 94.2621 119.06 93.4228 119.42C91.9916 120.042 91.1757 120.572 91.14 120.515C91.3014 120.352 91.4844 120.212 91.6838 120.1C92.2053 119.756 92.7505 119.45 93.3154 119.184C94.1532 118.781 95.0218 118.446 95.9131 118.182C97.0056 117.869 98.1242 117.656 99.2551 117.545C100.388 117.441 101.528 117.441 102.661 117.545C103.586 117.639 104.503 117.804 105.402 118.039C106.005 118.196 106.596 118.397 107.17 118.64C107.578 118.811 107.8 118.94 107.785 118.969Z" fill="#263238"/>
<path d="M124.316 162.722C124.759 161.438 125.447 160.252 126.341 159.23C127.137 158.127 128.141 157.191 129.297 156.474C129.368 156.56 127.994 157.734 126.627 159.459C125.261 161.183 124.423 162.772 124.316 162.722Z" fill="#263238"/>
<path d="M123.407 158.113C124.928 156.766 126.909 156.057 128.939 156.131C128.939 156.245 127.629 156.381 126.076 156.94C124.524 157.498 123.472 158.206 123.407 158.113Z" fill="#263238"/>
<path d="M148.905 235.285C148.332 234.09 146.944 233.568 145.677 233.138C120.681 225.081 93.8593 221.216 68.0184 225.911C64.9126 226.476 61.7066 227.213 59.2377 229.188C56.7688 231.163 55.2875 234.741 56.6043 237.604L61.907 239.307C88.3669 236.362 115.082 236.549 141.498 239.865C143.28 240.094 145.155 240.316 146.801 239.615C148.447 238.914 149.685 236.888 148.905 235.285Z" fill="#455A64"/>
<path d="M119.901 227.02C119.844 227.031 119.786 227.031 119.729 227.02L119.249 226.956L117.396 226.684C115.793 226.426 113.467 226.054 110.576 225.725C103.058 224.836 95.4878 224.475 87.9197 224.644C85.7084 224.687 83.5473 224.794 81.4791 224.966C79.411 225.138 77.393 225.238 75.4679 225.41C75.2298 225.429 74.9905 225.429 74.7523 225.41C74.5286 225.389 74.3034 225.389 74.0797 225.41C73.6266 225.441 73.1767 225.508 72.7343 225.61L70.1438 226.154C68.4764 226.526 66.9449 226.934 65.5638 227.392C63.3821 228.072 61.2987 229.034 59.3665 230.255C58.6509 230.691 58.1786 231.07 57.8423 231.335L57.4559 231.629C57.37 231.693 57.3199 231.729 57.3127 231.722L57.4272 231.6L57.7922 231.278C58.2682 230.868 58.7676 230.485 59.2878 230.133C61.2049 228.848 63.2904 227.834 65.4851 227.12C66.9915 226.614 68.5225 226.184 70.0722 225.832L72.6699 225.274C73.1391 225.156 73.6182 225.082 74.1011 225.052C74.3392 225.031 74.5786 225.031 74.8167 225.052C75.0545 225.079 75.2946 225.079 75.5324 225.052C77.4287 224.873 79.4611 224.751 81.5435 224.587C83.626 224.422 85.8372 224.301 87.9841 224.258C95.5456 224.085 103.109 224.48 110.612 225.438C113.474 225.803 115.822 226.218 117.417 226.519L119.264 226.863L119.736 226.963L119.901 227.02Z" fill="#263238"/>
<path d="M57.2555 186.287L99.8634 187.775C100.012 187.781 100.157 187.818 100.291 187.883C100.424 187.949 100.542 188.041 100.637 188.155C100.732 188.269 100.803 188.402 100.843 188.545C100.884 188.688 100.894 188.838 100.872 188.985L94.7395 240.08H104.343L109.295 183.832C109.351 183.379 109.312 182.918 109.18 182.48C109.049 182.042 108.828 181.637 108.531 181.289C108.234 180.941 107.868 180.658 107.457 180.459C107.045 180.26 106.596 180.149 106.139 180.133L56.1105 178.344L57.2555 186.287Z" fill="#455A64"/>
<path d="M283.698 182.566H277.022V184.047L291.72 324.544H298.576L283.698 182.566Z" fill="#455A64"/>
<path d="M134.635 182.566H141.312V184.076L127.608 324.501H120.752L134.635 182.566Z" fill="#455A64"/>
<path d="M134.635 182.566C134.635 182.566 134.635 182.816 134.578 183.281C134.521 183.747 134.463 184.491 134.378 185.428C134.199 187.31 133.941 190.087 133.605 193.651C132.889 200.807 131.923 211.133 130.699 223.943C128.209 249.533 124.767 284.992 120.931 324.494L120.752 324.287H127.608L127.422 324.458C133.92 258.493 139.423 202.61 141.255 184.047C141.255 183.332 141.255 182.931 141.255 182.537L141.305 182.587H136.295H135.065H134.657H135.05H136.267L141.333 182.551H141.383V182.609C141.383 183.002 141.383 183.417 141.383 184.119C139.587 202.682 134.184 258.543 127.787 324.551V324.723H120.559V324.516C124.452 284.971 127.951 249.469 130.477 223.85C131.758 211.062 132.782 200.742 133.497 193.608C133.855 190.03 134.134 187.31 134.32 185.428C134.421 184.505 134.492 183.797 134.542 183.281C134.592 182.766 134.635 182.566 134.635 182.566Z" fill="#263238"/>
<path d="M309.654 177.993H118.57V184.04H309.654V177.993Z" fill="#455A64"/>
<path d="M289.309 184.047C289.309 184.147 251.224 184.233 204.258 184.233C157.292 184.233 119.192 184.147 119.192 184.047C119.192 183.947 157.27 183.861 204.258 183.861C251.245 183.861 289.309 183.933 289.309 184.047Z" fill="#263238"/>
</svg>
